<svg width="60" height="20" viewBox="0 0 60 20" fill="none" xmlns="http://www.w3.org/2000/svg">
<g clip-path="url(#clip0_146_4735)">
<path d="M10.5253 0.519287C9.78253 0.519287 9.33789 1.095 9.33789 1.91486V8.20139C9.33789 9.00584 9.77225 9.58927 10.515 9.58927C11.2578 9.58927 11.6973 9.00584 11.6973 8.20139V1.91486C11.6973 1.095 11.2449 0.519287 10.515 0.519287" fill="#1756C2"/>
<path d="M16.0585 3.00981H15.5064V2.66542C15.5064 2.27732 15.732 2.11541 16.3285 2.18223C16.9633 2.24134 17.0993 1.83783 17.0993 1.51657C17.1013 1.40389 17.0792 1.2921 17.0348 1.18847C16.9905 1.08484 16.925 0.991716 16.8424 0.915159C16.4263 0.51936 15.3854 0.51936 15.3854 0.51936C14.8212 0.503569 14.267 0.666395 13.8015 0.984553C13.1672 1.47802 13.2212 2.38013 13.2212 2.38013V3.00981H13.1209C13.0099 3.00173 12.8985 3.01647 12.7934 3.05314C12.6883 3.08981 12.5919 3.14761 12.5099 3.22299C12.428 3.29836 12.3625 3.38971 12.3173 3.4914C12.2721 3.5931 12.2482 3.70298 12.2471 3.81427C12.2471 4.35913 12.7611 4.60843 13.1672 4.60843H13.2212V8.36082C13.2091 8.52073 13.2313 8.68137 13.2857 8.83229C13.3391 8.98319 13.4247 9.12098 13.5355 9.23665C13.6474 9.35232 13.7814 9.44329 13.9295 9.50361C14.0786 9.56394 14.2378 9.59228 14.398 9.58677C15.192 9.58677 15.5033 9.02391 15.5033 8.3968V4.60843H16.0585C16.3648 4.60843 16.9734 4.45936 16.9734 3.83739C16.9734 3.21542 16.4928 3.00211 16.0585 3.00211" fill="#1756C2"/>
<path d="M22.7024 2.80113C22.5311 2.79873 22.3618 2.83654 22.2077 2.91153C22.0535 2.98653 21.9195 3.0966 21.8157 3.23292C21.3996 2.94822 20.9059 2.79757 20.4021 2.80113C17.9991 2.80113 16.9351 4.60023 16.9351 6.35305C16.9351 8.21897 18.2197 9.66338 20.4021 9.66338C20.9049 9.65733 21.3946 9.50652 21.8127 9.22902C21.9155 9.36772 22.0495 9.47965 22.2046 9.55528C22.3588 9.63091 22.5301 9.66799 22.7024 9.66338C23.45 9.66338 23.8772 9.08766 23.8772 8.2755V4.19672C23.8772 3.3974 23.45 2.80113 22.7024 2.80113ZM19.2787 6.2631C19.2787 4.77756 19.9981 4.51284 20.4847 4.51284H20.5432C21.1014 4.55653 21.5376 4.92663 21.5376 6.32735C21.5376 7.72807 21.0631 7.97994 20.5714 8.00564H20.4968C19.9447 8.00564 19.2787 7.74862 19.2787 6.2631Z" fill="#1756C2"/>
<path d="M8.43842 7.80349C8.31499 7.43596 6.33088 1.77397 6.23325 1.50668C6.15325 1.25471 5.99587 1.03437 5.78348 0.877001C5.38508 0.576296 4.53692 0.594287 4.53692 0.594287C4.53692 0.594287 3.69912 0.573726 3.29559 0.877001C3.08461 1.03415 2.92964 1.25487 2.85347 1.50668C2.75332 1.76369 0.769117 7.43596 0.630375 7.80349C0.491532 8.17102 0.424731 8.6028 0.630375 8.96005C0.746145 9.14658 0.906249 9.30165 1.09628 9.4115C1.2864 9.52133 1.50062 9.58256 1.72006 9.58973C1.97246 9.60544 2.22243 9.53269 2.42697 9.38398C2.63151 9.23527 2.7778 9.01993 2.84068 8.775C3.02577 8.16074 3.1234 7.8626 3.1234 7.8626H5.95053C5.95053 7.8626 6.04302 8.16074 6.22811 8.775C6.29129 9.01877 6.43688 9.23314 6.64021 9.38167C6.84353 9.5302 7.0921 9.60372 7.34349 9.58973C7.56385 9.58861 7.78017 9.52991 7.9708 9.41946C8.16153 9.30901 8.32002 9.15064 8.43065 8.96005C8.5164 8.77932 8.56093 8.5818 8.56093 8.38177C8.56093 8.18174 8.5164 7.98422 8.43065 7.80349H8.43842ZM3.65801 5.91702L4.53692 3.04619L5.41854 5.91702H3.65801Z" fill="#1756C2"/>
<path d="M50.4086 16.4048H0.506836V17.4817H50.4086C51.1381 17.4808 51.8434 17.2226 52.4006 16.7523C52.9588 16.2822 53.3326 15.6303 53.4565 14.9116C53.0999 15.382 52.6394 15.763 52.1104 16.0244C51.5814 16.2858 50.9981 16.4205 50.4086 16.4176" fill="#EFCF00"/>
<path d="M53.4929 12.5784V11.7148H3.60125C2.78492 11.7203 2.00365 12.0469 1.42642 12.6242C0.849181 13.2013 0.522531 13.9827 0.51709 14.799V15.6832H50.4087C51.2259 15.6832 52.0108 15.3582 52.5891 14.7798C53.1675 14.2014 53.4929 13.4169 53.4929 12.599" fill="#D60F27"/>
<path d="M34.0831 2.73179C32.8206 2.73179 31.5924 4.42293 31.1581 5.07575C31.1833 4.86157 31.2236 4.64944 31.279 4.44093C31.3717 4.00915 31.4513 3.41288 31.1581 3.04021C31.0624 2.93244 30.9425 2.84846 30.8095 2.79493C30.6755 2.74139 30.5304 2.71977 30.3873 2.73179C29.2175 2.73179 28.0608 4.22247 27.5601 4.95238C27.6195 4.73907 27.688 4.47177 27.7344 4.31756C27.812 3.96032 27.9631 3.40003 27.7223 3.07362C27.6356 2.96955 27.5238 2.88856 27.3989 2.83788C27.2729 2.7872 27.1369 2.76842 27.0019 2.7832C26.5958 2.80818 26.1958 2.89484 25.815 3.04021L25.691 3.09675L25.8049 3.16358C25.8049 3.16358 25.9742 3.33321 25.8432 4.22247C25.6124 5.63047 25.3011 7.02406 24.9102 8.39636C24.8517 8.53949 24.8255 8.69403 24.8356 8.84844C24.8447 9.00285 24.889 9.15317 24.9646 9.28819C25.0663 9.40253 25.1943 9.49153 25.3374 9.54816C25.4794 9.60481 25.6336 9.62755 25.7868 9.6146C26.1253 9.61595 26.4608 9.55045 26.7732 9.42183L26.8477 9.40385L26.7893 9.32674C26.7893 9.32674 26.5324 8.93094 26.8709 8.17275C28.0407 5.57435 28.9868 4.53859 29.2488 4.36126C29.3132 4.33299 29.3485 4.297 29.3928 4.297C29.4029 4.29626 29.413 4.29959 29.4211 4.30628C29.4301 4.31298 29.4352 4.32253 29.4362 4.33299C29.4644 4.34584 29.4694 4.41009 29.4644 4.4692C29.286 5.62168 29.0442 6.76363 28.742 7.89004C28.6906 8.12135 28.6341 8.30897 28.6039 8.46575C28.5535 8.61074 28.5354 8.76477 28.5505 8.91734C28.5656 9.06992 28.614 9.21745 28.6906 9.34987C28.7843 9.44207 28.8961 9.51283 29.02 9.55722C29.143 9.6016 29.275 9.61855 29.4049 9.60688C29.7505 9.59931 30.0911 9.53237 30.4125 9.40899L30.5082 9.37044L30.4357 9.30618C30.4357 9.28305 30.1787 8.95407 30.5384 8.14963C31.4019 6.15007 32.5687 4.58743 32.872 4.36126C32.9244 4.3155 32.9889 4.28679 33.0574 4.27901C33.0574 4.27901 33.0725 4.27901 33.0906 4.30729C33.1229 4.37351 33.1319 4.44863 33.1168 4.52061C33.1168 4.56173 33.0785 4.68509 33.0493 4.87014C32.878 5.56151 32.5687 6.99307 32.4024 7.98771C32.3017 8.5814 32.3511 9.02861 32.5687 9.27277C32.6715 9.38142 32.7954 9.46664 32.9334 9.52256C33.0715 9.57847 33.2196 9.60374 33.3687 9.5966C33.7838 9.57315 34.1848 9.44109 34.5324 9.21366L34.6201 9.15454L34.5405 9.10057C34.5405 9.10057 34.1194 8.70735 34.3269 7.5405C34.471 6.75661 34.6614 5.85707 34.8025 5.20425C34.869 4.87528 34.9133 4.60285 34.9516 4.45378V4.39724C35.0292 4.03742 35.142 3.36919 34.8337 3.01194C34.741 2.9044 34.6231 2.82105 34.4911 2.76911C34.3591 2.71716 34.2161 2.69818 34.075 2.71381" fill="#D60F27"/>
<path d="M41.4644 2.80157C41.1541 2.78327 40.8498 2.8876 40.616 3.09199C40.2231 2.85973 39.7747 2.73558 39.3183 2.73218C38.7701 2.73172 38.2341 2.89164 37.7757 3.19222C37.026 3.69627 36.4286 4.39687 36.0487 5.21749C34.9847 7.28901 35.4966 8.80282 35.7615 9.17292C35.8774 9.33301 36.0336 9.46023 36.2139 9.5422C36.3933 9.62418 36.5918 9.6581 36.7893 9.64068C37.4472 9.64068 38.3308 9.38366 39.6548 7.28901C39.6034 7.6415 39.5752 7.99691 39.5702 8.35304C39.5702 9.49418 40.3742 9.61498 40.7057 9.61498C41.5641 9.61498 41.8654 9.21404 41.8654 9.20119L41.9007 9.15749L41.8654 9.1138C41.8654 9.1138 41.4664 8.70258 41.7233 6.57966C41.8654 5.39383 42.1848 4.23619 42.6725 3.14597L42.7057 3.09199L42.6463 3.05344C42.2725 2.89958 41.8735 2.81258 41.4694 2.79643L41.4644 2.80157ZM37.7505 8.08832C37.5752 8.08832 37.4936 7.78761 37.4936 7.47406C37.4936 7.1605 37.6628 5.17637 38.491 4.17402C38.5666 4.08399 38.6603 4.00995 38.7651 3.95613C38.8699 3.90232 38.9848 3.8698 39.1026 3.86046C39.6316 3.86046 40.1304 4.42846 40.2513 4.57496C39.6739 5.77593 38.9374 6.8937 38.0618 7.89813C37.9873 8.00163 37.8754 8.07182 37.7505 8.09346" fill="#D60F27"/>
<path d="M48.0469 2.73227C47.1189 2.73227 45.9904 4.27435 45.533 4.98113C45.6096 4.67272 45.7254 4.21009 45.8131 3.80144C45.8464 3.68008 45.8554 3.55304 45.8373 3.42829C45.8202 3.30355 45.7768 3.18384 45.7103 3.07667C45.6056 2.97705 45.4816 2.90095 45.3456 2.85351C45.2096 2.80607 45.0645 2.78838 44.9214 2.80166C44.5154 2.82315 44.1154 2.90367 43.7335 3.04069L43.6408 3.07924L43.7234 3.14863C43.7234 3.14863 43.8957 3.40564 43.7899 4.25636C43.6408 5.18931 43.0504 7.51014 42.8005 8.44824C42.742 8.58417 42.7158 8.73196 42.7249 8.87971C42.734 9.02747 42.7773 9.17105 42.8519 9.29895C43.0634 9.58423 43.4745 9.61764 43.7567 9.61764C44.0932 9.61682 44.4267 9.55138 44.739 9.42488L44.8307 9.40689L44.7743 9.32979C44.7743 9.32979 44.5456 8.96483 44.8086 8.27089C45.5179 6.4718 46.3068 5.44376 46.7794 5.07623C46.8741 5.00328 46.9889 4.96032 47.1088 4.95286C47.3658 4.95286 47.532 5.24585 47.532 5.24585L47.5713 5.31782L47.6298 5.25871C47.9925 4.90558 48.2817 4.48465 48.4812 4.0199C48.591 3.73719 48.7381 3.23345 48.5194 2.94303C48.466 2.86919 48.3945 2.81078 48.3109 2.77376C48.2282 2.73674 48.1366 2.72242 48.0469 2.73227Z" fill="#D60F27"/>
<path d="M53.4055 3.57252C52.8281 3.69652 52.2377 3.74662 51.6473 3.72159H51.4165C51.4548 3.50056 51.612 2.87345 51.7783 2.27717C51.8377 2.14241 51.8629 1.99548 51.8528 1.84878C51.8438 1.70207 51.7984 1.55987 51.7218 1.43417C51.6221 1.33515 51.5002 1.26048 51.3662 1.21592C51.2332 1.17136 51.0911 1.1581 50.951 1.17716C50.5087 1.20719 50.0714 1.29355 49.6503 1.43417L49.5405 1.46758L49.6352 1.55496C49.9233 1.85053 49.612 3.26667 49.478 3.79355C49.4629 3.82182 48.7334 6.62068 48.7334 7.97771C48.7334 9.10343 49.35 9.66115 50.5319 9.66115C51.216 9.67527 51.8841 9.45789 52.4292 9.04432C52.547 8.94829 52.6367 8.82125 52.6871 8.67739C52.7375 8.53352 52.7465 8.37848 52.7143 8.22959C52.6881 8.08814 52.6397 7.95185 52.5702 7.82608L52.5319 7.74383L52.4624 7.80808C52.2427 7.98744 51.9919 8.12428 51.7218 8.21159C51.5687 8.26523 51.4085 8.2964 51.2463 8.30412C51.0931 8.29926 50.947 8.23898 50.8352 8.13449C50.5631 7.85435 50.7374 6.84943 50.7969 6.52816C50.8896 6.01414 51.1133 5.06833 51.1616 4.83188H52.1893C52.3556 4.84642 52.5218 4.82654 52.68 4.77348C52.8372 4.72042 52.9823 4.63534 53.1052 4.52358C53.2281 4.41181 53.3269 4.27579 53.3954 4.12406C53.4629 3.97233 53.4992 3.80818 53.5002 3.64191V3.53911L53.4055 3.57252Z" fill="#D60F27"/>
</g>
<defs>
<clipPath id="clip0_146_4735">
<rect width="53" height="16.9634" fill="white" transform="translate(0.5 0.518311)"/>
</clipPath>
</defs>
</svg>
