<svg width="67" height="22" viewBox="0 0 67 22" fill="none" xmlns="http://www.w3.org/2000/svg">
<path d="M39.7228 7.22866C39.8013 6.7916 39.8013 6.34406 39.7228 5.90701C39.4816 4.55892 38.4441 3.46195 36.4881 3.42891L33.8018 3.37274L29.1463 3.30336L26.9722 7.52272L27.9436 7.44673L25.3201 19.0112H32.8271C33.1534 19.0107 33.4789 18.9775 33.7985 18.912C37.3273 18.2116 40.79 13.9559 37.3174 10.5658C37.9466 10.2302 38.4905 9.75493 38.9075 9.17645C39.3244 8.59797 39.6034 7.93167 39.7228 7.22866ZM33.8018 15.0925C33.6278 15.2225 33.4177 15.2953 33.2005 15.3006H30.501L31.3898 11.8247H33.4119C33.5405 11.8233 33.6688 11.8343 33.7952 11.8577C35.4076 12.165 34.8393 14.4019 33.8018 15.0925ZM34.4627 9.47546H31.9185L32.6718 6.3828H34.912C36.1048 6.39602 35.9528 9.48868 34.466 9.48868L34.4627 9.47546Z" fill="#005CAA"/>
<path d="M66.4137 19.1645L65.059 3.52273H57.8693L55.7712 7.45133H56.5245L51.1916 18.9993H56.1478L57.1952 16.1247H61.1073V19.1645H66.4137ZM58.3847 13.032L61.0941 7.59341V13.032H58.3847Z" fill="#005CAA"/>
<path d="M44.276 11.5164C44.5502 9.04819 49.3544 6.92033 52.6123 9.25634L52.8304 8.73099L54.4824 4.80238L52.8304 3.88053L51.1155 2.91573L50.8215 3.81445C48.8225 3.96644 43.5524 2.16239 40.311 10.241C40.0175 10.984 39.8188 11.7611 39.7196 12.5539C39.6539 13.1302 39.6539 13.7122 39.7196 14.2885C40.1029 17.3481 42.657 19.9716 49.2454 19.2447L50.9602 14.6388C45.971 16.1884 44.015 14.0936 44.276 11.5164Z" fill="#005CAA"/>
<path d="M19.3498 1.98248L19.33 1.95604H19.3003C16.5695 0.711925 13.6109 0.0459666 10.6104 0C7.64074 0.0341969 4.71234 0.699846 2.01969 1.95274L1.98334 1.98248L1.96352 2.02212C1.947 2.04525 0.000866262 5.59719 0.000866262 10.8673C-0.0275499 13.9511 0.643482 17.0012 1.96352 19.7884L1.98334 19.8247L2.02299 19.8446C4.75431 21.0914 7.71407 21.7596 10.7161 21.8072C13.6858 21.7731 16.6143 21.1075 19.3069 19.8545H19.3267L19.3432 19.838C19.4357 19.7421 21.5735 17.4491 21.5735 10.5302C21.5669 4.88019 19.4423 2.10803 19.3498 1.98248ZM19.145 19.5968C16.5013 20.8198 13.6288 21.4695 10.7161 21.5032C7.7777 21.4631 4.87868 20.821 2.19811 19.6166C0.918445 16.8787 0.267066 13.8894 0.291629 10.8673C0.260614 7.86751 0.91375 4.90014 2.20141 2.19063C4.83986 0.973749 7.70508 0.3264 10.6104 0.290763C13.5548 0.334672 16.4587 0.983606 19.1417 2.19724C19.5763 2.8292 19.9304 3.51293 20.1957 4.23258C20.9415 6.24031 21.309 8.36884 21.2794 10.5104C21.2761 16.9997 19.3366 19.3886 19.145 19.6067V19.5968Z" fill="#005CAA"/>
<path d="M10.7855 1.96167C10.7855 1.96167 7.29305 1.89559 7.29305 5.14024C7.29305 8.38489 10.5113 8.1569 10.5113 12.0789V16.5196H11.0564V12.0921C11.0564 8.1569 14.2747 8.38158 14.2747 5.15345C14.2747 1.92532 10.7855 1.96167 10.7855 1.96167Z" fill="#005CAA"/>
<path d="M5.89868 12.6222C7.63335 13.0782 9.86363 14.1124 9.86363 16.5178H10.1214V12.5793C10.1214 10.8149 8.52876 7.35215 6.24892 7.35215C3.96907 7.35215 3.37763 9.37428 3.37763 10.2234C3.39415 11.37 4.11115 12.1497 5.89868 12.6222Z" fill="#005CAA"/>
<path d="M6.89999 15.3743C8.40336 15.0438 9.10384 15.8269 9.2327 16.5175H9.4706C9.59946 15.143 8.30754 13.4612 6.0277 13.0944C3.74785 12.7276 3.63551 11.9611 3.63551 11.9611C2.52202 13.9964 3.44718 16.1375 6.89999 15.3743Z" fill="#005CAA"/>
<path d="M15.5533 12.6222C17.3409 12.153 18.0579 11.37 18.0579 10.2234C18.0579 9.37428 17.4664 7.35215 15.1866 7.35215C12.9067 7.35215 11.3142 10.8149 11.3142 12.5793V16.5211H11.5653C11.5653 14.1091 13.8154 13.0782 15.5533 12.6222Z" fill="#005CAA"/>
<path d="M15.4245 13.0944C13.1447 13.4612 11.8527 15.143 11.9816 16.5175H12.2261C12.355 15.8269 13.0554 15.0438 14.5588 15.3743C18.005 16.1375 18.9302 13.9964 17.8431 11.9611C17.8431 11.9611 17.7044 12.7276 15.4245 13.0944Z" fill="#005CAA"/>
<path d="M5.74007 18.8917L6.05396 19.0041L5.94162 19.3345C5.90194 19.3512 5.8591 19.3591 5.81606 19.3576C5.7503 19.3536 5.68561 19.3391 5.62442 19.3146C5.57635 19.2987 5.53257 19.272 5.49648 19.2365C5.46039 19.2009 5.43294 19.1576 5.41626 19.1098C5.3782 19.0029 5.3782 18.8862 5.41626 18.7794L5.53852 18.449C5.57218 18.3406 5.64221 18.2473 5.73676 18.1846C5.77829 18.1573 5.82577 18.1403 5.87522 18.1352C5.92467 18.13 5.97463 18.1368 6.02092 18.1549C6.10134 18.1784 6.16984 18.2315 6.21256 18.3036C6.2283 18.3395 6.23643 18.3783 6.23643 18.4176C6.23643 18.4568 6.2283 18.4956 6.21256 18.5316L6.51984 18.6406C6.55888 18.5686 6.57933 18.4879 6.57933 18.406C6.57933 18.3241 6.55888 18.2434 6.51984 18.1714C6.42666 18.0233 6.28185 17.915 6.11343 17.8674C6.02777 17.8332 5.93589 17.8173 5.8437 17.8207C5.75151 17.8241 5.66106 17.8468 5.57817 17.8873C5.49436 17.9294 5.41988 17.988 5.35915 18.0595C5.29842 18.1311 5.25267 18.2141 5.22463 18.3036L5.10237 18.634C5.06472 18.7205 5.04529 18.8139 5.04529 18.9082C5.04529 19.0026 5.06472 19.096 5.10237 19.1825C5.14369 19.2676 5.20191 19.3435 5.27348 19.4054C5.34506 19.4673 5.42849 19.514 5.51869 19.5426C5.65075 19.5956 5.79304 19.6182 5.93501 19.6087C6.03669 19.6005 6.13508 19.5688 6.22247 19.5162L6.44715 18.8884L5.80615 18.6604L5.74007 18.8917Z" fill="#005CAA"/>
<path d="M7.42835 18.2338L6.84022 18.1248L6.5098 19.8231L6.84022 19.8859L6.96577 19.2052L7.23671 19.2548C7.27315 19.2588 7.30838 19.2703 7.34021 19.2885C7.37203 19.3067 7.39979 19.3312 7.42174 19.3605C7.44114 19.3918 7.45407 19.4266 7.45974 19.4629C7.46542 19.4992 7.46373 19.5363 7.45478 19.572L7.43166 19.691C7.42185 19.7466 7.41633 19.803 7.41514 19.8595C7.4097 19.9076 7.42268 19.956 7.45148 19.9949L7.80172 20.061V20.0379C7.77221 20.0014 7.75591 19.956 7.75546 19.909C7.7493 19.8585 7.7493 19.8075 7.75546 19.757L7.77859 19.6315C7.79761 19.5422 7.79073 19.4493 7.75876 19.3638C7.72127 19.28 7.65423 19.213 7.57043 19.1755C7.65645 19.1583 7.7363 19.1183 7.80172 19.0599C7.86098 19.0033 7.90038 18.9292 7.91406 18.8484C7.93051 18.7789 7.93041 18.7065 7.91376 18.6371C7.89712 18.5676 7.8644 18.5031 7.81824 18.4486C7.71435 18.3375 7.57781 18.2622 7.42835 18.2338ZM7.60017 18.8021C7.59632 18.8355 7.58515 18.8676 7.56744 18.8962C7.54973 18.9248 7.52593 18.9491 7.49774 18.9673C7.42749 19.0001 7.34796 19.0071 7.27306 18.9872L7.03186 18.9409L7.12437 18.4453L7.37218 18.4916C7.44858 18.4997 7.51866 18.5377 7.56712 18.5973C7.58691 18.6271 7.6001 18.6608 7.60579 18.6961C7.61149 18.7315 7.60957 18.7676 7.60017 18.8021Z" fill="#005CAA"/>
<path d="M9.13999 19.5823C9.13946 19.6309 9.12892 19.6789 9.10902 19.7233C9.08913 19.7676 9.0603 19.8074 9.02434 19.8401C8.98768 19.8685 8.94569 19.8893 8.90086 19.9012C8.85602 19.9131 8.80925 19.9159 8.76332 19.9094C8.71752 19.9085 8.67243 19.898 8.63091 19.8786C8.58939 19.8593 8.55234 19.8315 8.52212 19.7971C8.4929 19.7589 8.4717 19.7153 8.45977 19.6687C8.44785 19.6222 8.44545 19.5737 8.45273 19.5262L8.54525 18.3995L8.21483 18.3697L8.1058 19.4931C8.09442 19.5785 8.10247 19.6653 8.12936 19.7472C8.15625 19.829 8.20128 19.9037 8.26109 19.9656C8.39135 20.0907 8.56302 20.1636 8.74349 20.1705C8.9223 20.1924 9.10302 20.149 9.25233 20.0482C9.32162 19.9973 9.37845 19.9312 9.41851 19.8551C9.45858 19.779 9.48084 19.6948 9.48362 19.6088L9.58274 18.4821L9.25233 18.4523L9.13999 19.5823Z" fill="#005CAA"/>
<path d="M10.4056 18.5027H9.74474V20.2308H10.0752V19.603H10.4056C10.5746 19.6143 10.7418 19.5625 10.8748 19.4576C10.9289 19.406 10.9721 19.344 11.0016 19.2753C11.031 19.2066 11.0462 19.1326 11.0462 19.0578C11.0462 18.983 11.031 18.909 11.0016 18.8403C10.9721 18.7715 10.9289 18.7095 10.8748 18.658C10.7433 18.5493 10.5759 18.4938 10.4056 18.5027ZM10.6203 19.2593C10.5908 19.2868 10.5559 19.3078 10.5177 19.3209C10.4796 19.334 10.4391 19.3389 10.399 19.3353H10.0685V18.7538H10.399C10.4391 18.7514 10.4793 18.7575 10.5169 18.7717C10.5544 18.7859 10.5886 18.808 10.617 18.8364C10.6673 18.8937 10.6934 18.9684 10.6897 19.0446C10.6931 19.1187 10.6669 19.1912 10.617 19.2461L10.6203 19.2593Z" fill="#005CAA"/>
<path d="M13.4781 19.2789C13.4098 19.2073 13.316 19.1657 13.2171 19.1632C13.2864 19.1299 13.3435 19.0755 13.3803 19.0079C13.417 18.9403 13.4316 18.8629 13.4219 18.7865C13.4181 18.7183 13.3969 18.6522 13.3605 18.5944C13.3241 18.5367 13.2736 18.4891 13.2138 18.4561C13.0627 18.3841 12.8932 18.3599 12.7281 18.3867L12.1663 18.4462L12.3481 20.1644L13.0089 20.095C13.174 20.0884 13.3322 20.0268 13.4583 19.9199C13.5082 19.8693 13.5454 19.8076 13.5667 19.7397C13.5879 19.6719 13.5927 19.6 13.5805 19.53C13.5751 19.4372 13.5391 19.3489 13.4781 19.2789ZM12.5562 18.6742L12.7743 18.6511C12.853 18.6368 12.9341 18.6484 13.0056 18.6841C13.0334 18.7027 13.0564 18.7277 13.0725 18.757C13.0886 18.7864 13.0974 18.8192 13.0981 18.8526C13.1033 18.8837 13.1009 18.9155 13.0911 18.9454C13.0814 18.9754 13.0645 19.0025 13.0419 19.0244C12.9832 19.073 12.91 19.1009 12.8338 19.1037L12.6025 19.1269L12.5562 18.6742ZM13.2171 19.748C13.1611 19.7976 13.0901 19.8267 13.0155 19.8306L12.6851 19.8637L12.6322 19.3681L12.9626 19.335C13.0396 19.321 13.1191 19.3376 13.184 19.3813C13.2115 19.4039 13.234 19.4321 13.2499 19.464C13.2659 19.4958 13.2749 19.5307 13.2765 19.5663C13.2778 19.6013 13.2707 19.636 13.2558 19.6677C13.2408 19.6993 13.2185 19.7269 13.1906 19.748H13.2171Z" fill="#005CAA"/>
<path d="M15.061 19.1613L14.7305 19.2274C14.7555 19.3145 14.7461 19.408 14.7041 19.4884C14.6795 19.5229 14.6481 19.5519 14.6116 19.5735C14.5752 19.5951 14.5347 19.6089 14.4926 19.6139C14.4445 19.6256 14.3942 19.6251 14.3463 19.6124C14.2984 19.5997 14.2544 19.5753 14.2184 19.5412C14.1369 19.4599 14.0836 19.3545 14.0664 19.2406L14.0003 18.9102C13.9742 18.8002 13.9823 18.685 14.0235 18.5797C14.0417 18.5355 14.0711 18.4968 14.1087 18.4673C14.1463 18.4377 14.1909 18.4184 14.2382 18.4112C14.2812 18.399 14.3262 18.3957 14.3705 18.4014C14.4148 18.407 14.4574 18.4216 14.4959 18.4443C14.5312 18.4718 14.5605 18.5062 14.5821 18.5454C14.6037 18.5846 14.6171 18.6277 14.6215 18.6723L14.9519 18.6062C14.9423 18.5256 14.9144 18.4482 14.8703 18.3801C14.8262 18.3119 14.7671 18.2548 14.6975 18.213C14.5383 18.1318 14.355 18.1119 14.1821 18.1568C14.092 18.1713 14.0061 18.2051 13.9302 18.2559C13.8544 18.3066 13.7904 18.3732 13.7426 18.4509C13.6457 18.6139 13.6161 18.8083 13.66 18.9928L13.7261 19.3232C13.7407 19.4165 13.7737 19.5059 13.823 19.5864C13.8723 19.667 13.9371 19.7369 14.0135 19.7924C14.0902 19.8455 14.1772 19.8818 14.2689 19.8989C14.3606 19.916 14.4549 19.9134 14.5455 19.8915C14.7181 19.8676 14.8752 19.779 14.985 19.6437C15.0321 19.5781 15.0639 19.5028 15.0782 19.4234C15.0925 19.3439 15.0889 19.2623 15.0676 19.1844L15.061 19.1613Z" fill="#005CAA"/>
<path d="M15.3254 17.8817L15.3452 19.7056L15.6756 19.5866V19.1967L16.2043 19.0117L16.4389 19.3256L16.7693 19.2066L15.6624 17.7627L15.3254 17.8817ZM15.6558 18.9126L15.636 18.2749L16.016 18.787L15.6558 18.9126Z" fill="#005CAA"/>
</svg>
