<svg xmlns="http://www.w3.org/2000/svg" width="120" height="36" viewBox="0 0 120 36" fill="none"><mask id="mask0" maskUnits="userSpaceOnUse" x="70" y="4" width="28" height="30"><path fill-rule="evenodd" clip-rule="evenodd" d="M70.4033 4.67627H97.759V33.049H70.4033V4.67627Z" fill="white"></path></mask><g mask="url(#mask0)"><path fill-rule="evenodd" clip-rule="evenodd" d="M77.8276 31.6587H70.4108C70.3838 31.5281 70.5197 31.506 70.5927 31.4475C71.0842 31.0541 71.5709 30.6565 71.9635 30.1656C72.2179 29.8475 72.3774 29.5056 72.3771 29.0875C72.3718 21.6861 72.3711 14.2848 72.3784 6.88333C72.3789 6.43665 72.178 6.10832 71.8705 5.81498C71.4338 5.39828 70.9301 5.06524 70.4033 4.75307C70.4791 4.62963 70.5994 4.69209 70.6919 4.69194C72.7044 4.68746 74.7169 4.69453 76.7292 4.68142C76.9965 4.67962 77.14 4.76696 77.282 4.97217C79.9171 8.77808 82.5438 12.5911 85.4044 16.2452C87.5945 19.043 89.8557 21.7892 92.0258 24.6022C92.0564 24.6419 92.0957 24.6758 92.1377 24.7193C92.2473 24.6076 92.1941 24.4861 92.1941 24.3797C92.1975 18.5736 92.1942 12.7676 92.203 6.96156C92.2037 6.53623 92.0602 6.20311 91.756 5.91119C91.2812 5.45565 90.731 5.09718 90.1147 4.71948H97.759C97.4512 4.87455 97.1839 5.01062 96.9153 5.14426C96.5277 5.33715 96.168 5.56888 95.834 5.83962C95.4826 6.12456 95.3057 6.45878 95.3063 6.92468C95.317 15.4637 95.3142 24.0027 95.3142 32.5418V33.049C94.6836 32.7405 94.1802 32.3496 93.6675 31.9733C91.5843 30.4445 89.9138 28.5358 88.294 26.5791C84.1293 21.5482 80.0809 16.4309 76.0265 11.3181C75.9526 11.2251 75.8766 11.1337 75.7804 11.0154C75.6972 11.1506 75.7349 11.2807 75.7348 11.4C75.7327 17.2713 75.7364 23.1428 75.7263 29.0142C75.7255 29.4598 75.8589 29.8269 76.1408 30.1664C76.4998 30.5989 76.9267 30.9607 77.3726 31.3048C77.5043 31.4064 77.6353 31.5091 77.8276 31.6587Z" fill="#005E6A"></path></g><path fill-rule="evenodd" clip-rule="evenodd" d="M102.312 4.70435H110.918C110.392 4.99195 109.937 5.23923 109.515 5.53594C108.919 5.95365 108.616 6.44906 108.619 7.2156C108.648 14.4741 108.639 21.7328 108.63 28.9914C108.629 29.4534 108.775 29.8283 109.08 30.1705C109.526 30.6725 110.073 31.0592 110.623 31.4432C110.706 31.5008 110.787 31.5606 110.923 31.6591H102.349C102.783 31.2974 103.188 30.9635 103.589 30.6251C104.205 30.1052 104.473 29.4871 104.469 28.6621C104.439 21.4559 104.446 14.2495 104.462 7.04327C104.464 6.47472 104.247 6.06689 103.829 5.71305C103.39 5.34085 102.901 5.03755 102.312 4.70435Z" fill="#005E6A"></path><path fill-rule="evenodd" clip-rule="evenodd" d="M18.3333 4.46402C18.0383 5.11834 17.8273 5.78804 17.713 6.48481C17.3466 8.72101 17.769 10.8563 18.6418 12.9216C19.7258 15.4868 21.3573 17.7342 23.1188 19.9005C23.4653 20.3268 23.4738 20.3227 23.0185 20.6735C22.2655 21.2536 21.5079 21.8282 20.7588 22.4131C20.5768 22.5552 20.4706 22.6101 20.2832 22.3836C16.5865 17.914 12.8794 13.4524 9.17137 8.99166C9.05452 8.85104 8.99903 8.71073 9.00001 8.52906C9.00638 7.27402 9.00597 6.01883 9.00067 4.76379C8.99985 4.5585 9.00785 4.42314 9.29402 4.42408C12.2576 4.43302 15.2211 4.42996 18.1847 4.43153C18.2236 4.43161 18.2624 4.44801 18.3333 4.46402Z" fill="#F05A23"></path><path fill-rule="evenodd" clip-rule="evenodd" d="M37.5164 18.0017C37.5164 19.5958 37.5087 21.19 37.5237 22.7839C37.5263 23.0613 37.4303 23.2013 37.1776 23.3202C35.6897 24.0202 34.2397 23.8903 32.8709 23.0724C31.0504 21.9847 29.5111 20.5769 28.3246 18.8655C27.2586 17.3276 26.8319 15.6053 27.4285 13.7906C28.2658 11.2435 30.9515 9.93876 33.6004 10.726C34.9829 11.1369 36.1806 11.8682 37.3201 12.7042C37.5005 12.8366 37.519 12.9905 37.5185 13.1803C37.5147 14.7874 37.5164 16.3946 37.5164 18.0017Z" fill="#F05A23"></path><mask id="mask1" maskUnits="userSpaceOnUse" x="21" y="4" width="17" height="12"><path fill-rule="evenodd" clip-rule="evenodd" d="M21.543 4.3985H37.525V15.5688H21.543V4.3985Z" fill="white"></path></mask><g mask="url(#mask1)"><path fill-rule="evenodd" clip-rule="evenodd" d="M25.4487 15.5688C25.147 15.1745 24.8825 14.8492 24.6406 14.509C23.4159 12.7874 22.3493 10.9883 21.8452 8.93547C21.5305 7.65359 21.3877 6.35877 21.786 5.06363C21.9911 4.39644 21.9982 4.39715 22.6984 4.39856C27.4952 4.40853 32.2919 4.42211 37.0887 4.42242C37.4189 4.4225 37.5322 4.49375 37.5247 4.82931C37.5015 5.84822 37.5104 6.86791 37.5204 7.88721C37.5229 8.13833 37.5065 8.23242 37.1992 8.11604C33.7017 6.79218 30.1849 7.54616 27.6354 10.1874C26.4802 11.3842 25.945 12.8733 25.6334 14.4474C25.5657 14.7894 25.5194 15.1354 25.4487 15.5688Z" fill="#F05A23"></path></g><path fill-rule="evenodd" clip-rule="evenodd" d="M37.5158 24.8296V27.395C37.5158 28.7025 37.5166 30.0099 37.5148 31.3175C37.5146 31.4921 37.5708 31.6832 37.2523 31.6823C34.1406 31.6745 31.0287 31.6777 27.8035 31.6777C28.5067 31.0865 29.1389 30.5552 29.8062 29.9943C27.7528 30.0311 26.2669 29.0147 24.912 27.7718C23.8386 26.787 22.9057 25.6773 21.9831 24.5609C21.8256 24.3704 21.8443 24.2802 22.0327 24.1344C22.8794 23.4785 23.7264 22.822 24.5468 22.1365C24.8131 21.9139 24.9286 21.9966 25.1113 22.2077C26.302 23.5829 27.6428 24.8011 29.2659 25.6953C31.0187 26.661 32.8826 27.0276 34.87 26.5029C35.8899 26.2336 36.7423 25.6899 37.5158 24.8296Z" fill="#F05A23"></path><path fill-rule="evenodd" clip-rule="evenodd" d="M9.01074 31.6487V14.4992C9.16121 14.4731 9.19181 14.5988 9.25171 14.6714C11.9467 17.937 14.6355 21.2074 17.3395 24.4662C17.5725 24.747 17.5478 24.8786 17.2671 25.1005C14.6319 27.1838 12.0091 29.2816 9.38219 31.3746C9.28165 31.4546 9.17508 31.5278 9.01074 31.6487Z" fill="#F05A23"></path><path fill-rule="evenodd" clip-rule="evenodd" d="M23.3894 31.6602H12.4922C13.1619 31.1199 13.7705 30.6286 14.3796 30.1377C15.7954 28.9966 17.2167 27.8614 18.6226 26.7091C18.8776 26.5002 18.9991 26.5056 19.2171 26.7643C20.5167 28.3071 21.8391 29.832 23.1534 31.3635C23.2207 31.4419 23.2822 31.5249 23.3894 31.6602Z" fill="#F05A23"></path><path fill-rule="evenodd" clip-rule="evenodd" d="M60.8144 27.2896C60.298 27.6541 59.7415 27.9526 59.1559 28.1987C58.4523 28.4945 57.728 28.6533 56.9447 28.6387C55.2592 28.6074 53.5726 28.6193 51.8867 28.6376C51.5543 28.6412 51.4914 28.5423 51.4941 28.2466C51.5085 26.599 51.501 24.9513 51.501 23.3037C51.501 21.6429 51.5071 19.9821 51.4948 18.3215C51.4928 18.0531 51.5596 17.9675 51.8512 17.9696C53.6732 17.9825 55.5013 17.8875 57.3159 17.9991C59.4674 18.1314 61.2803 19.0329 62.4527 20.8283C63.8317 22.9402 63.1005 25.676 60.8144 27.2896ZM51.8577 7.33624C53.3385 7.3495 54.8225 7.40129 56.2993 7.32666C57.9094 7.24529 59.7851 8.47231 60.2342 10.3592C60.7816 12.6593 59.6367 14.7662 57.3457 15.6364C57.129 15.7188 56.9076 15.7651 56.672 15.7647C55.0553 15.7617 53.4384 15.7558 51.8219 15.7699C51.5384 15.7724 51.494 15.6762 51.496 15.4359C51.5066 14.1295 51.501 12.8229 51.501 11.5164C51.501 10.236 51.5103 8.95539 51.4937 7.67524C51.4901 7.39313 51.5803 7.3338 51.8577 7.33624ZM67.3132 22.31C66.9163 19.639 65.3183 17.8646 62.7681 16.8327C62.0479 16.5413 61.2906 16.3702 60.4437 16.203C61.4171 15.8515 62.1953 15.37 62.888 14.7452C64.9772 12.8607 65.4975 8.86413 62.9434 6.74415C61.3418 5.4148 59.4363 4.73192 57.3427 4.70429C53.2648 4.65054 49.1855 4.68789 45.1068 4.69182C44.9996 4.69189 44.8703 4.63265 44.7662 4.75389C45.3268 5.04377 45.8528 5.36324 46.3244 5.76173C46.7236 6.09893 46.9192 6.49036 46.9181 7.02728C46.9038 14.2708 46.899 21.5142 46.9231 28.7576C46.9255 29.4942 46.6674 30.0411 46.1418 30.5245C45.71 30.9215 45.2323 31.2637 44.6689 31.6777H44.9809C49.1276 31.6777 53.2743 31.6777 57.421 31.6773C57.5161 31.6772 57.6127 31.6813 57.706 31.6676C60.156 31.3078 62.4519 30.5596 64.4401 29.0959C66.7696 27.3805 67.7276 25.0988 67.3132 22.31Z" fill="#005E6A"></path></svg>