<svg xmlns="http://www.w3.org/2000/svg" width="147" height="36" viewBox="0 0 147 36" fill="none"><path fill-rule="evenodd" clip-rule="evenodd" d="M138.17 26.077C138.176 25.9689 138.187 25.8607 138.187 25.7526C138.188 20.5493 138.191 15.3462 138.18 10.143C138.18 9.85677 138.261 9.80843 138.521 9.81032C139.842 9.82013 141.163 9.80857 142.484 9.8045V26.1046C142.418 26.1474 142.345 26.1302 142.274 26.1303C140.978 26.1313 139.681 26.1319 138.385 26.1285C138.314 26.1284 138.222 26.176 138.17 26.077Z" fill="#09539C"></path><path fill-rule="evenodd" clip-rule="evenodd" d="M138.17 26.077C138.231 26.1658 138.303 26.1625 138.375 26.1625C139.709 26.1618 141.044 26.162 142.379 26.16C142.414 26.16 142.449 26.1386 142.484 26.1271V26.226C141.141 26.2262 139.798 26.2284 138.456 26.222C138.358 26.2214 138.235 26.3222 138.17 26.077Z" fill="#09539C"></path><mask id="mask0" maskUnits="userSpaceOnUse" x="32" y="1" width="1" height="2"><path fill-rule="evenodd" clip-rule="evenodd" d="M32.2109 1.70843H32.7761V2.05219H32.2109V1.70843Z" fill="white"></path></mask><g mask="url(#mask0)"><path fill-rule="evenodd" clip-rule="evenodd" d="M32.7761 1.95033C32.5857 1.92558 32.3834 2.24246 32.2109 1.70808H32.7734C32.7722 1.78908 32.7731 1.87008 32.7761 1.95033Z" fill="#09539C"></path></g><mask id="mask1" maskUnits="userSpaceOnUse" x="8" y="1" width="2" height="2"><path fill-rule="evenodd" clip-rule="evenodd" d="M8.95117 1.70844H9.5168V2.04827H8.95117V1.70844Z" fill="white"></path></mask><g mask="url(#mask1)"><path fill-rule="evenodd" clip-rule="evenodd" d="M9.5168 1.7083C9.3478 2.20555 9.1433 1.94417 8.95117 1.94792C8.95405 1.86805 8.95505 1.78817 8.9543 1.7083H9.5168Z" fill="#09539C"></path></g><path fill-rule="evenodd" clip-rule="evenodd" d="M83.67 15.5061L83.6559 12.0382C83.6178 11.3168 83.6468 10.5951 83.6406 9.87349C83.6403 9.83955 83.6655 9.82879 83.6821 9.80931C84.9658 9.80924 86.2496 9.80917 87.5333 9.80902C87.6139 9.88302 87.5744 9.97991 87.5745 10.0652C87.5766 15.3241 87.5751 20.5829 87.5808 25.8418C87.581 26.0564 87.5437 26.1381 87.3078 26.1367C85.6715 26.126 84.0352 26.1311 82.3989 26.1309C82.3362 26.1309 82.2729 26.136 82.211 26.1204C82.0133 25.8458 81.9246 25.5152 81.762 25.2232C81.4229 24.6136 81.1029 23.9944 80.801 23.365C80.3035 22.3276 79.7689 21.3084 79.2449 20.2849C78.8457 19.5052 78.491 18.7017 78.0632 17.9387C77.6339 17.1733 77.2762 16.3737 76.886 15.5896C76.7842 15.385 76.5926 15.2317 76.5372 14.9843C76.5657 15.6249 76.5282 16.2588 76.5508 16.8929C76.5903 17.6817 76.5562 18.4711 76.569 19.2601C76.5707 19.3678 76.5477 19.478 76.5906 19.5832C76.5954 20.122 76.6 20.6608 76.6048 21.1996C76.6444 21.9907 76.6102 22.7822 76.6228 23.5734C76.6244 23.6804 76.6031 23.7896 76.6447 23.8939C76.6494 24.4496 76.654 25.0052 76.6588 25.5609C76.6832 25.7426 76.6945 25.9243 76.6517 26.1051L76.6505 26.108C76.5834 26.145 76.5102 26.1304 76.4396 26.1304C75.2667 26.1313 74.0937 26.1313 72.9208 26.1304C72.8502 26.1304 72.7771 26.1453 72.71 26.1077C72.7101 20.7835 72.7124 15.4592 72.7041 10.135C72.7037 9.87131 72.7665 9.80786 73.0264 9.80997C74.6542 9.82334 76.2821 9.82043 77.9099 9.812C78.1088 9.81091 78.2007 9.87916 78.288 10.0567C79.9149 13.3664 81.5491 16.6724 83.1835 19.9783C83.3043 20.2229 83.3871 20.4871 83.5517 20.7091C83.587 20.7484 83.6252 20.8023 83.6756 20.7364C83.7093 20.6924 83.6922 20.6312 83.6922 20.5776C83.6926 18.9312 83.6929 17.2848 83.6925 15.6383C83.6924 15.5929 83.6906 15.5479 83.67 15.5061Z" fill="#09539C"></path><path fill-rule="evenodd" clip-rule="evenodd" d="M93.4184 16.452C93.8932 15.7936 94.3663 15.1339 94.8431 14.4771C95.9373 12.9695 97.0344 11.4642 98.1263 9.9549C98.2055 9.84536 98.2947 9.81476 98.4203 9.81498C100.065 9.81767 101.711 9.8168 103.384 9.8168C103.227 10.1384 102.978 10.3715 102.775 10.635C101.978 11.6695 101.157 12.6841 100.365 13.7224C99.6369 14.6762 98.872 15.601 98.125 16.5399C97.9251 16.7912 97.7377 17.0531 97.5309 17.2983C97.4192 17.4307 97.511 17.524 97.5717 17.6063C98.9546 19.4829 100.343 21.3552 101.729 23.23C102.407 24.1474 103.08 25.0683 103.757 25.9866C103.777 26.014 103.812 26.0303 103.84 26.0517C103.852 26.1402 103.786 26.1301 103.736 26.13C101.957 26.123 100.178 26.1482 98.3993 26.1177C98.0761 25.6516 97.7501 25.1876 97.4304 24.7191C96.961 24.0312 96.4962 23.3403 96.0293 22.6506C95.1605 21.3675 94.2916 20.0845 93.4227 18.8013C93.2776 18.863 93.3543 18.9909 93.3541 19.0822C93.3487 21.3167 93.3504 23.5512 93.3494 25.7857C93.3493 26.1798 93.3849 26.1299 93.0001 26.1304C91.7682 26.1322 90.5363 26.1269 89.3046 26.1352C89.1027 26.1365 89.0289 26.0965 89.0292 25.8699C89.0361 20.5926 89.0343 15.3152 89.0364 10.0378C89.0364 9.96166 88.9984 9.87284 89.078 9.80931C90.4876 9.80924 91.8972 9.80917 93.3069 9.80902C93.393 9.8921 93.3474 9.99815 93.3475 10.0917C93.3507 12.117 93.3487 14.1423 93.3539 16.1676C93.3541 16.2604 93.2821 16.385 93.4184 16.452Z" fill="#09539C"></path><path fill-rule="evenodd" clip-rule="evenodd" d="M89.0782 9.80933C89.0719 9.9177 89.0603 10.0261 89.0603 10.1345C89.0593 15.3571 89.0615 20.5798 89.0534 25.8023C89.053 26.0586 89.1037 26.1348 89.3705 26.1312C90.6021 26.1147 91.834 26.1189 93.0657 26.1289C93.2753 26.1306 93.3336 26.077 93.3328 25.8612C93.3247 23.5724 93.327 21.2834 93.3314 18.9946C93.3316 18.9163 93.257 18.7967 93.403 18.757C93.4058 18.7563 93.4135 18.768 93.4164 18.7749C93.4199 18.7831 93.4208 18.7924 93.4229 18.8013C93.3432 18.8968 93.3797 19.0107 93.3796 19.1158C93.3773 21.3588 93.3742 23.6018 93.3832 25.8448C93.3843 26.092 93.3227 26.1679 93.0706 26.1653C91.8123 26.1522 90.5537 26.1547 89.2953 26.1637C89.0795 26.1653 89.0018 26.1153 89.002 25.8802C89.0084 20.6132 89.0067 15.3462 89.0088 10.0792C89.0089 9.98705 88.9634 9.87482 89.0782 9.80933Z" fill="#09539C"></path><path fill-rule="evenodd" clip-rule="evenodd" d="M41.8605 9.80933C41.8545 9.90862 41.8431 10.0078 41.8431 10.1071C41.8422 15.3455 41.8443 20.5838 41.836 25.8221C41.8355 26.0768 41.9058 26.1307 42.1456 26.1293C44.5717 26.1145 46.9979 26.1119 49.4242 26.1063C49.4689 26.1062 49.5137 26.1113 49.5584 26.114C49.4732 26.1902 49.3693 26.1577 49.274 26.1578C46.8833 26.1596 44.4926 26.156 42.102 26.1645C41.86 26.1653 41.7832 26.1074 41.7835 25.8504C41.7911 20.6024 41.7889 15.3544 41.7916 10.1064C41.7917 10.0062 41.7388 9.88441 41.8605 9.80933Z" fill="#09539C"></path><path fill-rule="evenodd" clip-rule="evenodd" d="M82.2109 26.1205C83.9183 26.1217 85.6258 26.1204 87.3331 26.1277C87.5065 26.1283 87.5598 26.0838 87.5596 25.9028C87.5549 20.6009 87.5558 15.2991 87.5548 9.9972C87.5548 9.93447 87.5408 9.87181 87.5333 9.80908C87.6391 9.86549 87.6027 9.96732 87.6027 10.0519C87.6042 15.3347 87.6035 20.6175 87.6065 25.9004C87.6066 26.0719 87.584 26.1644 87.3769 26.1634C85.7147 26.156 84.0525 26.1593 82.3902 26.1592C82.328 26.1592 82.2634 26.1676 82.2109 26.1205Z" fill="#09539C"></path><path fill-rule="evenodd" clip-rule="evenodd" d="M36.9613 23.7045C36.9544 23.2596 36.9417 22.8146 36.9416 22.3697C36.9412 17.173 36.9429 11.9763 36.9447 6.7797C36.9447 6.69814 36.9559 6.61659 36.9618 6.53503C37.1343 6.62117 37.0607 6.72606 37.0607 6.82244C37.0643 12.354 37.0643 17.8856 37.0607 23.4172C37.0607 23.5135 37.1344 23.6184 36.9613 23.7045Z" fill="#09539C"></path><path fill-rule="evenodd" clip-rule="evenodd" d="M123.326 26.1077C123.999 26.1131 124.672 26.1206 125.345 26.1234C125.983 26.1261 126.621 26.1111 127.259 26.1301C127.528 26.1381 127.619 26.0796 127.617 25.7829C127.602 23.8592 127.608 21.9354 127.61 20.0115C127.61 19.9143 127.582 19.8119 127.639 19.7195C127.64 21.7905 127.641 23.8616 127.646 25.9327C127.646 26.0874 127.613 26.1631 127.438 26.1623C126.125 26.1567 124.813 26.1593 123.5 26.1593C123.437 26.1593 123.373 26.1644 123.326 26.1077Z" fill="#09539C"></path><path fill-rule="evenodd" clip-rule="evenodd" d="M109.246 26.0771C109.351 26.2194 109.472 26.1624 109.586 26.162C112.017 26.1539 114.447 26.1417 116.878 26.131C116.923 26.1307 116.967 26.1406 117.012 26.1456C116.936 26.2794 116.841 26.2278 116.755 26.228C114.338 26.2307 111.922 26.2312 109.506 26.2268C109.415 26.2266 109.302 26.313 109.246 26.0771Z" fill="#09539C"></path><path fill-rule="evenodd" clip-rule="evenodd" d="M93.4709 16.452C93.4055 16.5132 93.3566 16.4823 93.3469 16.4314C93.3319 16.3512 93.3375 16.269 93.3375 16.1878C93.3371 14.1694 93.3376 12.151 93.3359 10.1327C93.3358 10.0248 93.3168 9.91696 93.3066 9.80902C93.4846 9.88425 93.4071 10.0056 93.4074 10.1056C93.4122 12.1159 93.4102 14.1262 93.4134 16.1365C93.4136 16.2418 93.3631 16.3547 93.4709 16.452Z" fill="#09539C"></path><path fill-rule="evenodd" clip-rule="evenodd" d="M83.6875 15.5061C83.697 15.55 83.7147 15.5939 83.7148 15.6378C83.7162 17.3841 83.716 19.1304 83.716 20.8911C83.6107 20.8751 83.5854 20.7887 83.5518 20.7091C83.6102 20.7197 83.6793 20.7487 83.6812 20.6555C83.6826 20.5829 83.6816 20.5102 83.6817 20.4375C83.6836 18.7937 83.6856 17.1499 83.6875 15.5061Z" fill="#09539C"></path><path fill-rule="evenodd" clip-rule="evenodd" d="M98.3994 26.1502C100.156 26.1534 101.912 26.1572 103.669 26.1564C103.729 26.1564 103.82 26.2214 103.841 26.0518C103.882 26.1054 103.898 26.1699 103.833 26.1953C103.774 26.2187 103.709 26.2118 103.646 26.2119C101.975 26.2126 100.303 26.2128 98.6315 26.2113C98.5527 26.2113 98.4682 26.2438 98.3994 26.1502Z" fill="#09539C"></path><path fill-rule="evenodd" clip-rule="evenodd" d="M67.3711 26.154C68.859 26.1555 70.3469 26.1581 71.8348 26.1545C71.9139 26.1543 72.0199 26.2303 72.0672 26.0509C72.1032 26.1129 72.109 26.1789 72.0468 26.1958C71.9772 26.2147 71.9042 26.2096 71.8326 26.2096C70.4321 26.2101 69.0318 26.2107 67.6313 26.2085C67.544 26.2083 67.4507 26.2457 67.3711 26.154Z" fill="#09539C"></path><path fill-rule="evenodd" clip-rule="evenodd" d="M132.506 26.126C133.895 26.1253 135.285 26.1264 136.674 26.1201C136.766 26.1196 136.927 26.2068 136.933 25.9969C137.026 26.1552 136.915 26.158 136.809 26.1587C136.549 26.1603 136.288 26.1593 136.028 26.1593C134.95 26.1593 133.873 26.1601 132.795 26.158C132.698 26.1578 132.597 26.1849 132.506 26.126Z" fill="#09539C"></path><path fill-rule="evenodd" clip-rule="evenodd" d="M54.5142 25.9973C54.5092 26.0873 54.548 26.125 54.6402 26.1245C56.0409 26.117 57.4416 26.1117 58.8422 26.1058C58.7714 26.1876 58.6759 26.158 58.59 26.1581C57.301 26.1598 56.0119 26.1613 54.7229 26.1545C54.6401 26.1541 54.4256 26.2592 54.5142 25.9973Z" fill="#09539C"></path><path fill-rule="evenodd" clip-rule="evenodd" d="M72.71 26.1196C73.6573 26.1319 74.6048 26.1489 75.5522 26.1542C75.9183 26.1563 76.2844 26.1324 76.6505 26.1204C76.5872 26.2841 76.502 26.2349 76.4239 26.2351C75.2614 26.2375 74.0988 26.2377 72.9362 26.2351C72.8582 26.2349 72.7729 26.2847 72.71 26.1196Z" fill="#09539C"></path><path fill-rule="evenodd" clip-rule="evenodd" d="M76.7172 23.8939C76.5507 23.3483 76.6392 22.7993 76.6142 22.2519C76.5981 21.9013 76.6208 21.5504 76.6261 21.1996C76.7613 21.2577 76.7279 21.3331 76.7278 21.4038C76.7255 22.2338 76.721 23.0639 76.7172 23.8939Z" fill="#09539C"></path><path fill-rule="evenodd" clip-rule="evenodd" d="M76.664 19.5832C76.4943 18.9327 76.5889 18.2794 76.5578 17.6273C76.5463 17.3827 76.5672 17.1377 76.5731 16.8929C76.6907 16.9423 76.6758 17.0071 76.6755 17.0697C76.672 17.9075 76.6679 18.7454 76.664 19.5832Z" fill="#09539C"></path><path fill-rule="evenodd" clip-rule="evenodd" d="M83.7688 9.80933C83.7566 10.4528 83.7449 11.0961 83.7314 11.7395C83.7293 11.8391 83.7196 11.9386 83.7133 12.0382C83.5533 11.9529 83.6222 11.8489 83.6211 11.7532C83.6147 11.1945 83.6136 10.6357 83.6223 10.077C83.6238 9.9853 83.5272 9.87402 83.7688 9.80933Z" fill="#09539C"></path><path fill-rule="evenodd" clip-rule="evenodd" d="M127.637 19.8033C128.092 19.6174 128.547 19.6268 129.001 19.8091L127.637 19.8033Z" fill="#09539C"></path><path fill-rule="evenodd" clip-rule="evenodd" d="M54.9224 21.9055C54.9225 21.5794 54.9227 21.2532 54.923 20.9271C55.0878 21.2532 55.088 21.5794 54.9224 21.9055Z" fill="#09539C"></path><path fill-rule="evenodd" clip-rule="evenodd" d="M117.444 9.92452C117.188 9.93442 116.932 9.97418 116.681 9.82898C116.935 9.86561 117.194 9.71249 117.444 9.92452Z" fill="#09539C"></path><path fill-rule="evenodd" clip-rule="evenodd" d="M131.743 9.92477C131.501 9.93352 131.258 9.97823 131.02 9.83501C131.261 9.86702 131.507 9.70664 131.743 9.92477Z" fill="#09539C"></path><path fill-rule="evenodd" clip-rule="evenodd" d="M49.9907 9.92514C49.7498 9.93323 49.508 9.97415 49.2705 9.83555C49.5105 9.8664 49.755 9.708 49.9907 9.92514Z" fill="#09539C"></path><path fill-rule="evenodd" clip-rule="evenodd" d="M121.945 14.3278C121.945 14.1289 121.945 13.93 121.945 13.7311C122.108 13.93 122.108 14.1289 121.945 14.3278Z" fill="#09539C"></path><path fill-rule="evenodd" clip-rule="evenodd" d="M76.6589 26.1052C76.6641 25.9238 76.6694 25.7423 76.675 25.5609C76.8283 25.7433 76.8509 25.9249 76.6589 26.1052Z" fill="#09539C"></path><path fill-rule="evenodd" clip-rule="evenodd" d="M54.5889 13.8545C54.4435 13.6903 54.4892 13.5192 54.4975 13.3494C54.7037 13.5116 54.5624 13.686 54.5889 13.8545Z" fill="#09539C"></path><path fill-rule="evenodd" clip-rule="evenodd" d="M54.4979 14.6003C54.4762 14.4468 54.4652 14.2938 54.5874 14.1457C54.564 14.2975 54.7023 14.4555 54.4979 14.6003Z" fill="#09539C"></path><path fill-rule="evenodd" clip-rule="evenodd" d="M136.199 14.6548C136.177 14.5177 136.155 14.3804 136.288 14.2498C136.265 14.385 136.397 14.5271 136.199 14.6548Z" fill="#09539C"></path><path fill-rule="evenodd" clip-rule="evenodd" d="M122.33 22.178C122.321 22.0416 122.277 21.9038 122.418 21.7737C122.397 21.9087 122.527 22.0503 122.33 22.178Z" fill="#09539C"></path><path fill-rule="evenodd" clip-rule="evenodd" d="M36.9067 29.9738C36.8917 29.8421 36.8641 29.7099 37.0028 29.5856C36.9727 29.7151 37.1047 29.8525 36.9067 29.9738Z" fill="#09539C"></path><path fill-rule="evenodd" clip-rule="evenodd" d="M136.289 13.7427C136.145 13.6168 136.192 13.4823 136.198 13.3497C136.393 13.4732 136.265 13.6114 136.289 13.7427Z" fill="#09539C"></path><mask id="mask2" maskUnits="userSpaceOnUse" x="32" y="34" width="1" height="1"><path fill-rule="evenodd" clip-rule="evenodd" d="M32.2969 34.3749H32.9855V34.697H32.2969V34.3749Z" fill="white"></path></mask><g mask="url(#mask2)"><path fill-rule="evenodd" clip-rule="evenodd" d="M32.2969 34.6631C32.5156 34.3762 32.7514 34.4265 32.9855 34.4467C32.7739 34.8724 32.5274 34.6087 32.2969 34.6631Z" fill="#09539C"></path></g><path fill-rule="evenodd" clip-rule="evenodd" d="M35.1523 33.1916C35.2219 33.1288 35.2916 33.0659 35.3612 33.0029C35.3363 33.1163 35.2678 33.1806 35.1523 33.1916Z" fill="#09539C"></path><path fill-rule="evenodd" clip-rule="evenodd" d="M117.259 26.1687C117.369 26.0191 117.488 26.0631 117.606 26.0798C117.498 26.2712 117.375 26.1529 117.259 26.1687Z" fill="#09539C"></path><path fill-rule="evenodd" clip-rule="evenodd" d="M49.8164 26.1719C49.9223 26.0252 50.0377 26.062 50.1522 26.0798C50.0485 26.2684 49.9289 26.1531 49.8164 26.1719Z" fill="#09539C"></path><path fill-rule="evenodd" clip-rule="evenodd" d="M53.9072 24.4077C53.969 24.337 54.0308 24.2663 54.0926 24.1956C54.0826 24.3126 54.019 24.3816 53.9072 24.4077Z" fill="#09539C"></path><path fill-rule="evenodd" clip-rule="evenodd" d="M50.5303 9.97674C50.4345 10 50.3397 10.0084 50.2539 9.88038C50.347 9.89737 50.4477 9.80101 50.5303 9.97674Z" fill="#09539C"></path><path fill-rule="evenodd" clip-rule="evenodd" d="M122.42 21.0034C122.282 20.9115 122.314 20.81 122.332 20.7091C122.509 20.7986 122.411 20.9041 122.42 21.0034Z" fill="#09539C"></path><mask id="mask3" maskUnits="userSpaceOnUse" x="4" y="1" width="33" height="34"><path fill-rule="evenodd" clip-rule="evenodd" d="M4.5 1.57269H36.9618V34.3947H4.5V1.57269Z" fill="white"></path></mask><g mask="url(#mask3)"><path fill-rule="evenodd" clip-rule="evenodd" d="M33.2601 24.1632C33.26 25.2801 33.2601 26.3971 33.2601 27.5515C33.0522 27.4459 32.9482 27.2833 32.8189 27.1507C31.0361 25.3224 29.2539 23.4935 27.4739 21.6626C26.3339 20.49 25.2001 19.3114 24.0566 18.1424C23.9235 18.0063 23.924 17.9319 24.0561 17.7982C25.3184 16.5187 26.5624 15.2207 27.836 13.9527C28.8294 12.9637 29.3726 11.7566 29.6481 10.4019C29.8062 9.62513 29.8593 8.83713 29.8034 8.05043C29.7073 6.69714 29.3748 5.40971 28.6219 4.26067C28.6034 4.23254 28.5899 4.20106 28.5693 4.1621C29.0779 4.1621 29.568 4.14102 30.0555 4.16821C30.5072 4.1935 30.9656 4.15869 31.4075 4.32078C32.5384 4.7356 33.2612 5.77343 33.2613 7.02445C33.2621 12.7374 33.2607 18.4503 33.2601 24.1632ZM30.4439 31.7666C26.8289 31.7719 23.2138 31.7653 19.5987 31.7694C19.3653 31.7696 19.3546 31.7195 19.4438 31.5151C19.9389 30.3812 20.3412 29.2143 20.5714 27.9939C20.69 27.3644 20.6534 26.7269 20.5763 26.0971C20.4483 25.0531 20.1626 24.0535 19.659 23.1254C19.3867 22.6233 19.0675 22.1541 18.6702 21.7445C17.5062 20.544 16.3402 19.3454 15.1694 18.1516C15.0448 18.0244 15.023 17.9566 15.1615 17.8139C16.383 16.5561 17.5852 15.2793 18.8121 14.0271C19.9543 12.8615 20.5409 11.4488 20.7519 9.84435C20.9343 8.45726 20.8202 7.10499 20.3695 5.78201C20.1949 5.26935 19.964 4.78409 19.6738 4.32776C19.6511 4.292 19.6339 4.25267 19.5942 4.17715C19.9043 4.17715 20.179 4.17599 20.4537 4.17737C21.1279 4.18078 21.8025 4.17286 22.4762 4.1922C23.6098 4.22483 24.5401 4.71729 25.287 5.55537C26.0668 6.43053 26.4411 7.47061 26.4093 8.65221C26.3801 9.73256 26.0084 10.682 25.2718 11.4621C24.0633 12.742 22.8341 14.002 21.6122 15.2689C20.7902 16.121 19.9681 16.9731 19.1397 17.8189C19.0214 17.9396 19.0027 18.0041 19.1334 18.1373C20.5762 19.6082 22.0136 21.0846 23.4479 22.5638C24.4341 23.5809 25.4094 24.6085 26.3962 25.625C27.9909 27.2678 29.5879 28.9083 31.1918 30.5419C31.4547 30.8097 31.7574 31.0377 32.0675 31.3064C31.4952 31.6781 30.9746 31.7659 30.4439 31.7666ZM15.3267 30.7045C14.3696 31.4183 13.3005 31.7793 12.1103 31.7745C11.6613 31.7727 11.2122 31.7787 10.7632 31.7735C9.46741 31.7582 8.36492 30.6541 8.22527 29.4275C8.10979 28.4135 8.18102 27.3954 8.1767 26.3795C8.16497 23.5818 8.17267 20.784 8.17267 17.9863H8.17605C8.17605 14.3346 8.17059 10.683 8.17958 7.03143C8.18217 6.01199 8.57516 5.17304 9.42784 4.58718C9.87105 4.28262 10.3686 4.17133 10.8994 4.17606C11.8253 4.18434 12.7533 4.14764 13.6765 4.19997C14.7197 4.25914 15.5871 4.75312 16.2861 5.52332C16.9911 6.30005 17.3771 7.23401 17.4328 8.2847C17.4903 9.36847 17.1946 10.3607 16.5118 11.2086C15.9156 11.9489 15.2047 12.5815 14.5483 13.2652C13.1667 14.7042 11.7656 16.1242 10.3769 17.556C10.2161 17.7217 9.92444 17.8671 9.93962 18.0674C9.95286 18.2407 10.2237 18.3944 10.3809 18.5565C12.0034 20.2296 13.6214 21.9075 15.2515 23.5729C15.7441 24.0761 16.2531 24.561 16.5864 25.1947C17.5833 27.0895 17.047 29.4216 15.3267 30.7045ZM36.9584 23.4347C36.9592 17.8914 36.9592 12.3482 36.9584 6.80501C36.9584 6.71502 36.9728 6.62344 36.9422 6.53505C36.8727 5.59651 36.6383 4.71213 36.1245 3.91329C35.6234 3.13416 34.9663 2.53776 34.1488 2.11174C33.6475 1.8505 33.1071 1.73413 32.5638 1.61958C32.442 1.56484 32.3042 1.64255 32.1842 1.57269H9.2502C9.14896 1.64007 9.02809 1.56739 8.92462 1.61914C8.10123 1.71225 7.32999 1.98432 6.66942 2.47561C5.25942 3.52449 4.50704 4.95141 4.50488 6.73196C4.49617 14.1895 4.50207 21.6471 4.50063 29.1046C4.50042 30.1388 4.71972 31.1125 5.27474 31.9906C6.22643 33.4961 7.59053 34.3708 9.35704 34.3777C16.9993 34.4076 24.6417 34.3891 32.2841 34.3881C32.3887 34.329 32.5083 34.3918 32.6144 34.3462C32.7057 34.3093 32.8034 34.3284 32.8996 34.3072C33.7425 34.122 34.4929 33.7522 35.1523 33.1916C35.2239 33.1311 35.3108 33.0875 35.3611 33.0029C35.8895 32.4353 36.3441 31.8154 36.6012 31.074C36.725 30.7173 36.7943 30.3411 36.8882 29.9738C36.9364 29.8482 36.869 29.7098 36.9303 29.5857C36.9311 29.2228 36.9322 28.8601 36.9329 28.4973C36.936 26.8997 36.939 25.3021 36.9419 23.7045C36.973 23.6163 36.9584 23.5247 36.9584 23.4347Z" fill="#09539C"></path></g><path fill-rule="evenodd" clip-rule="evenodd" d="M116.46 22.9369C115.544 23.1214 114.618 23.0441 113.695 23.0655C113.532 23.0693 113.56 22.9625 113.56 22.8666C113.559 22.2855 113.56 21.7044 113.56 21.1233C113.56 20.5512 113.563 19.9792 113.557 19.4071C113.556 19.2661 113.576 19.195 113.744 19.1971C114.657 19.2088 115.571 19.1798 116.478 19.3422C117.3 19.4895 117.938 20.0408 118.035 20.7241C118.207 21.9366 117.667 22.6935 116.46 22.9369ZM113.56 14.5747C113.56 14.0757 113.562 13.5766 113.558 13.0775C113.558 12.9576 113.558 12.8719 113.722 12.8739C114.608 12.8843 115.497 12.8454 116.371 13.0258C116.964 13.1485 117.444 13.4383 117.6 14.0826C117.753 14.7102 117.636 15.2776 117.123 15.6977C116.695 16.0477 116.166 16.1579 115.634 16.235C115.018 16.3241 114.399 16.2761 113.781 16.2939C113.609 16.2988 113.551 16.2548 113.555 16.0719C113.568 15.5731 113.56 15.0738 113.56 14.5747ZM122.35 21.7735C122.35 21.5168 122.35 21.2601 122.349 21.0034C122.306 20.9094 122.349 20.8038 122.311 20.7092C122.203 20.3637 122.135 20.0045 121.961 19.6815C121.495 18.8218 120.741 18.34 119.851 18.0392C119.598 17.9533 119.335 17.8952 119.057 17.819C119.145 17.7426 119.223 17.7158 119.304 17.686C120.09 17.3969 120.772 16.9624 121.276 16.2678C121.695 15.6882 121.84 15.0179 121.933 14.3278C121.96 14.1289 121.96 13.93 121.933 13.7311C121.912 13.5634 121.897 13.3947 121.869 13.2282C121.691 12.1846 121.19 11.3477 120.307 10.7611C119.439 10.1843 118.456 9.96767 117.444 9.8497C117.191 9.79686 116.932 9.87376 116.681 9.80762C116.582 9.81067 116.483 9.81634 116.385 9.81634C114.091 9.81685 111.798 9.81663 109.505 9.81721C109.378 9.81721 109.253 9.7704 109.254 10.0066C109.263 14.0667 109.261 18.1268 109.26 22.187C109.259 23.4836 109.251 24.7803 109.246 26.0771C109.318 26.1862 109.428 26.1277 109.516 26.1279C111.926 26.1319 114.335 26.1312 116.745 26.1304C116.834 26.1303 116.924 26.1449 117.012 26.1138C117.094 26.1087 117.176 26.1035 117.259 26.0984C117.37 26.0506 117.493 26.1015 117.606 26.0592C118.397 25.9259 119.178 25.7777 119.918 25.4307C120.664 25.0813 121.252 24.57 121.706 23.8928C122.052 23.3763 122.192 22.7796 122.311 22.178C122.355 22.0461 122.299 21.9047 122.35 21.7735Z" fill="#09539C"></path><path fill-rule="evenodd" clip-rule="evenodd" d="M49.4699 22.8051C48.8327 23.0225 48.1764 23.0607 47.5138 23.0637C47.1276 23.0654 46.7408 23.0516 46.3555 23.0689C46.1449 23.0785 46.1025 23.0029 46.1071 22.8058C46.1202 22.2436 46.1117 21.681 46.1117 21.1187H46.1106C46.1106 20.5472 46.1127 19.9756 46.1088 19.4042C46.1079 19.278 46.1249 19.1977 46.2794 19.1991C47.2106 19.2068 48.1456 19.1602 49.0658 19.3489C49.7137 19.4818 50.2854 19.7587 50.5192 20.4405C50.8234 21.3278 50.6358 22.4073 49.4699 22.8051ZM46.1114 14.5827C46.1117 14.084 46.1139 13.5852 46.1102 13.0865C46.1093 12.9656 46.113 12.8742 46.2729 12.8755C47.1676 12.8828 48.0667 12.8383 48.9489 13.0274C49.5368 13.1535 50.0362 13.4377 50.1678 14.0884C50.336 14.9197 50.1274 15.5643 49.2756 15.9482C48.6633 16.2242 48.0069 16.2903 47.3426 16.2903C47.0015 16.2903 46.6601 16.2822 46.3194 16.2937C46.1537 16.2994 46.1037 16.2469 46.1072 16.0787C46.1177 15.5803 46.1109 15.0814 46.1114 14.5827ZM54.9113 20.9271C54.8802 20.7792 54.8503 20.631 54.8177 20.4834C54.54 19.2257 53.7101 18.4994 52.5537 18.0925C52.2616 17.9897 51.9621 17.9079 51.6152 17.8009C51.9965 17.6141 52.3446 17.4976 52.6659 17.3125C53.1504 17.0333 53.5569 16.6838 53.8783 16.2278C54.2227 15.7394 54.3762 15.1794 54.4798 14.6004C54.5263 14.4517 54.464 14.2935 54.519 14.1456C54.5192 14.0486 54.5193 13.9516 54.5195 13.8545C54.461 13.6898 54.5288 13.5148 54.4795 13.3494C54.4227 13.2246 54.4424 13.0827 54.408 12.9587C54.0579 11.6984 53.2766 10.831 52.072 10.3367C51.5715 10.1313 51.0491 10.0288 50.5298 9.90433C50.4421 9.8605 50.3392 9.91792 50.2534 9.86188C50.1656 9.85774 50.0779 9.85367 49.9901 9.84967C49.7519 9.80002 49.5075 9.86806 49.2699 9.81013C46.8001 9.80983 44.3303 9.80962 41.8605 9.80933C41.7743 9.89248 41.8194 9.99875 41.8194 10.0925C41.8167 15.3341 41.817 20.5757 41.8171 25.8173C41.8171 26.1304 41.8174 26.131 42.1151 26.131C44.507 26.1311 46.8989 26.1312 49.2908 26.1304C49.38 26.1303 49.4708 26.1448 49.5584 26.1139C49.6443 26.1094 49.7303 26.1048 49.8162 26.1001C49.9233 26.0455 50.0438 26.1042 50.152 26.0595C50.6166 25.9934 51.0759 25.9089 51.5318 25.7879C52.4514 25.544 53.2445 25.0948 53.907 24.4078C53.9894 24.3555 54.0339 24.2694 54.0924 24.1957C54.1201 24.1414 54.1408 24.0816 54.1767 24.0335C54.6473 23.4033 54.8153 22.6673 54.9111 21.9055C54.9395 21.5794 54.9389 21.2532 54.9113 20.9271Z" fill="#09539C"></path><path fill-rule="evenodd" clip-rule="evenodd" d="M130.345 16.5051C129.503 16.6694 128.647 16.6089 127.797 16.6207C127.629 16.623 127.606 16.5461 127.607 16.4076C127.612 15.8541 127.609 15.3006 127.609 14.7471C127.609 14.2027 127.609 13.6583 127.609 13.1139C127.609 12.9937 127.592 12.8724 127.776 12.8757C128.705 12.8919 129.64 12.8442 130.551 13.0817C131.197 13.25 131.77 13.5727 131.881 14.2907C132.063 15.478 131.654 16.2496 130.345 16.5051ZM136.932 25.9969C136.847 25.7747 136.757 25.5542 136.676 25.3302C136.017 23.4977 135.368 21.6615 134.696 19.8335C134.504 19.3093 134.245 18.8137 133.8 18.4448C133.593 18.2734 133.332 18.2144 133.076 18.0616C133.412 17.9764 133.705 17.8786 133.99 17.7529C134.748 17.4183 135.328 16.8931 135.719 16.1543C135.968 15.6838 136.079 15.1712 136.179 14.6548C136.223 14.5229 136.167 14.3808 136.218 14.2496C136.219 14.0806 136.219 13.9116 136.219 13.7427C136.163 13.6162 136.225 13.4774 136.18 13.3497C136.159 13.2721 136.131 13.1956 136.118 13.1167C135.942 12.1088 135.405 11.3456 134.576 10.7766C133.721 10.1892 132.747 9.97432 131.743 9.84966C131.504 9.79842 131.258 9.8698 131.019 9.81012C128.566 9.8123 126.112 9.81899 123.659 9.81027C123.395 9.80939 123.319 9.8626 123.319 10.1454C123.329 15.4661 123.326 20.7869 123.326 26.1077C123.403 26.1479 123.485 26.1301 123.565 26.1302C124.824 26.1314 126.083 26.1251 127.342 26.1365C127.57 26.1387 127.621 26.0674 127.621 25.8474C127.612 23.9034 127.615 21.9593 127.617 20.0152C127.617 19.9171 127.596 19.8162 127.638 19.7207C128.092 19.6863 128.547 19.6792 129.001 19.7234C129.42 19.7962 129.808 19.9221 130.135 20.2298C130.659 20.7237 130.926 21.37 131.156 22.0169C131.597 23.2618 131.972 24.5306 132.372 25.7902C132.409 25.9058 132.399 26.0389 132.505 26.126C133.436 26.1377 134.367 26.1283 135.298 26.1308C135.781 26.1321 136.264 26.1337 136.747 26.1285C136.827 26.1275 136.973 26.1852 136.932 25.9969Z" fill="#09539C"></path><path fill-rule="evenodd" clip-rule="evenodd" d="M64.9021 19.5798C63.7064 19.5695 62.5105 19.5742 61.3147 19.576C61.171 19.5762 61.0803 19.5903 61.1514 19.375C61.8156 17.3628 62.466 15.346 63.1216 13.3309C63.1378 13.2815 63.1683 13.2369 63.2308 13.1141C63.4238 13.757 63.5954 14.3305 63.768 14.9037C64.2108 16.3744 64.6503 17.846 65.101 19.3142C65.168 19.5327 65.1267 19.5817 64.9021 19.5798ZM72.0123 25.9599C71.4589 24.514 70.9073 23.0673 70.3539 21.6214C69.7018 19.9176 69.0458 18.2154 68.3959 16.5109C67.572 14.3504 66.7512 12.1889 65.9346 10.0257C65.8747 9.86703 65.7946 9.81215 65.6251 9.8128C64.0158 9.81942 62.4065 9.82167 60.7972 9.81026C60.6056 9.80888 60.5349 9.88811 60.4788 10.0402C60.1258 10.9969 59.7741 11.9541 59.4154 12.9086C59.0918 13.7693 58.752 14.624 58.4336 15.4867C58.0744 16.4592 57.7171 17.4322 57.3382 18.3973C56.9994 19.2603 56.6849 20.1331 56.36 21.0017C55.9533 22.0889 55.5393 23.1733 55.1438 24.2645C54.9343 24.8422 54.6808 25.4038 54.514 25.9973C54.4856 26.2088 54.6504 26.1266 54.7312 26.127C56.0403 26.1327 57.3494 26.1312 58.6585 26.1306C58.7203 26.1305 58.7846 26.1429 58.8419 26.1058C59.2384 24.9983 59.6356 23.8911 60.03 22.7827C60.0736 22.6602 60.1662 22.6578 60.267 22.6579C62.1825 22.658 64.098 22.6584 66.0135 22.6565C66.1142 22.6564 66.1544 22.6787 66.1933 22.7913C66.578 23.9039 66.9766 25.0118 67.3711 26.1212C68.8902 26.1436 70.4094 26.1253 71.9286 26.1298C71.9854 26.13 72.0636 26.1531 72.0672 26.0509C72.0486 26.0207 72.0248 25.9925 72.0123 25.9599Z" fill="#09539C"></path></svg>