<svg width="60" height="20" viewBox="0 0 60 20" fill="none" xmlns="http://www.w3.org/2000/svg">
<g clip-path="url(#clip0_13495_286072)">
<path fill-rule="evenodd" clip-rule="evenodd" d="M2.52543 0H71.8744C73.0457 0.00363636 73.9962 0.927273 73.9999 2.06545V21.9345C73.9962 23.0727 73.0457 23.9964 71.8744 24H2.52543C1.35414 23.9964 0.403644 23.0727 0.399902 21.9345V2.06545C0.403644 0.927273 1.35414 0.00363636 2.52543 0Z" fill="#F0F0F0"/>
<path fill-rule="evenodd" clip-rule="evenodd" d="M73.1764 16.291V21.9347C73.1764 22.6365 72.5964 23.2037 71.8742 23.2147H2.52523C1.79926 23.211 1.21175 22.6401 1.20801 21.9347V16.291H73.1764Z" fill="#FECF22"/>
<path d="M73.1764 8.51953H1.20801V15.4795H73.1764V8.51953Z" fill="#006AB4"/>
<path fill-rule="evenodd" clip-rule="evenodd" d="M2.52523 0.785156H71.8742C72.6002 0.788793 73.1839 1.3597 73.1877 2.06516V7.70879H1.20801V2.06516C1.21175 1.3597 1.79926 0.788793 2.52523 0.785156Z" fill="#D61627"/>
<path fill-rule="evenodd" clip-rule="evenodd" d="M12.2062 5.64281C16.3899 4.40644 20.6708 3.50099 25.008 2.94462C28.4432 2.54099 31.8972 2.33371 35.3587 2.33008H39.1681C42.6034 2.33735 46.0349 2.54462 49.444 2.9519C53.7512 3.5119 58.0097 4.41008 62.1672 5.63917C62.6986 5.77735 63.1888 6.03917 63.5929 6.40644C64.0233 6.81008 64.2628 7.37008 64.2553 7.9519V16.0464C64.2628 16.6283 64.0233 17.1846 63.5929 17.5883C63.1888 17.9555 62.6986 18.2173 62.1672 18.3555C58.0097 19.5846 53.7549 20.4864 49.444 21.0428C46.0349 21.4501 42.6034 21.6573 39.1681 21.6683H36.2306C32.5408 21.6973 28.8549 21.5046 25.1913 21.0901C20.7943 20.5337 16.4497 19.6246 12.2062 18.3664C11.6748 18.2283 11.1846 17.9664 10.7804 17.5992C10.3501 17.1919 10.1181 16.6283 10.1293 16.0464V7.95553C10.1218 7.37371 10.3613 6.81371 10.7917 6.41008C11.1921 6.04644 11.6785 5.78099 12.2062 5.64281Z" fill="#E6E6E6"/>
<path fill-rule="evenodd" clip-rule="evenodd" d="M45.5598 14.7338C45.2567 14.3265 45.5598 13.6429 45.7581 13.2793C45.9565 12.9156 46.3157 12.3629 46.8396 12.4611C47.0829 13.3047 46.3082 14.8284 45.5598 14.7447V14.7338ZM29.2142 12.3993C29.5885 13.3484 28.3236 15.0865 27.8933 14.6102C27.5415 14.2465 28.361 12.2029 29.2142 12.3993ZM31.9086 14.6138L31.7589 14.2902C31.3323 14.3811 30.6624 14.7629 30.1872 14.6538C29.929 14.0793 31.7926 10.2902 32.1481 9.14473L31.2125 9.18473C30.9506 9.60655 30.4641 11.0865 30.2246 11.392C28.5706 11.2247 27.882 11.6865 27.2085 12.5447C26.1158 13.9338 26.9203 14.0756 26.0858 14.5302C25.3599 14.9302 25.4646 14.7047 25.4122 14.6465C25.1091 14.392 25.9549 12.6356 26.0334 12.2538C26.1382 11.7556 25.8725 11.3556 25.3973 11.3811C24.922 11.4065 24.6152 11.7156 24.2971 11.8829C23.1745 12.4611 24.2335 10.2247 21.2286 12.2902C20.9965 12.4502 20.4128 12.7775 20.3005 12.8865C20.323 12.7047 21.1911 10.8902 21.367 10.4647C21.7038 9.64655 22.0443 8.79564 22.3362 7.96291C21.2435 7.89382 17.9954 8.43928 17.0074 9.29746C15.1364 10.9156 17.3817 13.0575 18.8373 11.4102C18.4818 11.1629 17.9355 11.4102 17.8532 10.7665C17.7671 10.3375 17.9355 9.89746 18.2872 9.62837C18.6615 9.352 20.2893 9.06473 20.8656 8.95928C20.7421 9.36291 20.5961 9.75564 20.4315 10.1447C19.7878 11.8865 18.9983 14.5484 16.6894 14.6175C15.4919 14.6538 15.1476 14.1338 14.7248 13.3375C14.4404 13.7193 14.358 14.2065 14.504 14.6575C14.6499 15.0356 14.9493 15.3375 15.331 15.4902C17.1197 16.3302 18.6989 14.9156 19.9712 13.9593C20.2893 13.7193 21.4681 12.5447 22.093 12.8356C22.4373 13.4975 21.4419 14.8902 21.4231 15.5775L22.6019 15.5993C22.8115 15.032 22.9761 14.4138 23.1857 13.8175C23.3578 13.312 23.6011 12.4065 24.2821 12.8647C24.5478 13.5447 23.4327 14.9702 24.0426 15.4465C24.6526 15.9229 26.0971 14.952 26.4338 14.752C26.6995 15.1156 26.6958 15.5847 27.3769 15.6938C27.8895 15.752 28.4022 15.5993 28.7914 15.272C28.986 15.5047 28.9373 15.7338 29.3826 15.6938C29.8279 15.6538 31.1227 14.8247 31.8973 14.6029L31.9086 14.6138ZM54.2864 13.6429C54.234 13.0465 54.9114 12.2211 55.4091 12.2429C55.57 12.6065 55.2893 12.9702 55.1097 13.1884C54.9301 13.4065 54.6606 13.6793 54.2864 13.6429ZM36.5301 12.2211L36.6648 12.6247C37.039 12.5229 37.4432 12.2902 37.8136 12.3884C37.9296 13.072 36.8631 14.9338 36.691 15.7338L37.8511 15.712C38.1055 15.1556 38.3188 14.5884 38.4984 14.0065C38.6818 13.5302 38.8988 12.5993 39.5724 12.8284C39.9691 13.592 38.8876 14.9629 38.824 15.712H40.1487C40.3919 15.0247 40.6689 14.1738 40.957 13.4938C41.0992 13.1593 41.2489 12.632 41.7653 12.7665C42.3491 12.9265 41.3387 13.992 41.3499 14.9484C41.3125 15.3265 41.6007 15.6647 41.9936 15.7011C42.0273 15.7011 42.0647 15.7047 42.0984 15.7011C42.6746 15.6465 43.6438 14.8756 44.1378 14.7702C44.3661 15.2647 44.4147 15.5775 45.0209 15.6684C45.6272 15.7593 46.0164 15.4829 46.428 15.272L46.4617 15.312L46.5477 15.432C46.6712 15.6065 46.7386 15.7375 47.0342 15.7665C48.0109 15.8611 49.4554 14.3447 50.0279 13.6247C50.6566 12.8138 50.4021 12.8756 51.2104 12.8065C51.0345 13.5338 50.1589 14.7411 50.8998 15.4611C51.6408 16.1811 53.1114 15.2102 53.5605 14.9556C53.9721 15.3993 54.1929 15.792 55.1733 15.7484C55.9479 15.7156 56.3783 15.4102 56.9995 15.2356C57.7479 16.4429 60.2214 15.2575 60.1279 14.5084C59.8061 14.4502 59.4356 14.872 59.11 15.0502C58.6572 15.2865 58.197 15.1375 58.1857 14.6247C58.3728 13.8211 58.6236 13.0284 58.9341 12.2611H59.6826L59.9296 11.4356H59.4057C59.5029 10.5702 59.9745 9.82837 60.1541 9.06109L59.1025 9.10109L58.2606 11.3665L57.4934 11.4102L57.2801 12.2465H57.8864C57.7254 13.112 57.3737 13.9302 56.8573 14.6502C56.4194 15.1811 54.8552 15.4975 54.5708 14.5702C54.945 14.1702 55.5775 14.0793 56.0677 13.2393C57.3213 11.1338 54.8216 10.8793 53.8224 12.3447C53.1825 13.2611 53.3808 13.5447 53.4145 14.6284C52.1572 15.3084 51.7156 15.4429 51.8279 14.2465C51.9401 13.0502 52.1347 13.2138 52.3405 12.9993C52.5202 12.8356 52.5389 12.5629 52.3854 12.3738C52.1871 12.1738 51.8428 12.352 51.4724 12.2211C51.2366 11.6502 51.6408 11.5556 51.8017 11.2465C51.5771 11.2393 51.3564 11.2211 51.1356 11.192C50.8661 11.0938 51.0158 10.9738 50.8025 10.9084C50.5032 11.0175 50.4844 11.0284 50.3797 11.352C50.0766 12.2829 50.1888 12.4865 49.6612 13.2029C49.3768 13.592 48.4113 14.9047 47.7452 14.6575C47.4384 14.2611 48.6096 11.9593 48.7556 11.3847C47.5618 11.2975 47.7415 11.5156 47.5731 11.6975C46.4729 11.2138 45.8929 11.6247 45.2193 12.2065C44.2501 13.0429 44.2089 14.2465 44.0966 14.3884C43.801 14.5738 43.206 14.8284 42.7719 14.6756C42.6447 14.192 43.4156 12.7811 43.5428 12.2065C43.67 11.632 43.3145 11.2793 42.6859 11.4356C42.2144 11.5556 42.0347 11.9811 41.6007 12.0356C41.2264 11.7847 41.2264 11.2611 40.478 11.3847C39.9504 11.472 39.9167 11.872 39.3217 11.9884C39.3105 11.9702 39.303 11.952 39.2955 11.9338L39.2281 11.7738C39.1982 11.6938 39.1309 11.4465 38.9999 11.3775C38.3637 11.2902 37.1625 12.0429 36.5301 12.2211Z" fill="#006AB4"/>
<path fill-rule="evenodd" clip-rule="evenodd" d="M34.1836 11.8909C34.9919 11.8946 35.643 12.5346 35.6393 13.32C35.6355 14.1055 34.9769 14.7382 34.1686 14.7346C33.3603 14.7309 32.7092 14.0909 32.7129 13.3055C32.7129 12.9309 32.8701 12.5709 33.1433 12.3055C33.4202 12.0364 33.7944 11.8873 34.1836 11.8909ZM34.1836 10.6582C32.6718 10.6582 31.4481 11.8437 31.4443 13.3127C31.4443 14.7818 32.6643 15.9709 34.1761 15.9746C35.6879 15.9782 36.9116 14.7891 36.9153 13.32C36.9153 12.6146 36.6272 11.9382 36.1145 11.4364C35.6018 10.9382 34.9095 10.6582 34.1836 10.6582ZM35.9012 11.6364C34.9544 10.7164 33.4164 10.7127 32.4659 11.6364C31.5154 12.56 31.5154 14.0509 32.4659 14.9746C33.4164 15.8982 34.9507 15.8982 35.9012 14.9746C36.3577 14.5309 36.6122 13.9309 36.6122 13.3055C36.6122 12.68 36.3577 12.08 35.9012 11.6364ZM34.1836 11.2727C33.0235 11.2764 32.0842 12.1964 32.088 13.3237C32.0917 14.4509 33.0385 15.3637 34.1985 15.36C35.3586 15.3564 36.2979 14.4364 36.2941 13.3091C36.2941 12.7709 36.0696 12.2546 35.6804 11.8727C35.2838 11.4837 34.7449 11.2691 34.1836 11.2727ZM35.4521 12.08C34.7524 11.4 33.6148 11.4037 32.9187 12.0837C32.219 12.7637 32.2227 13.8691 32.9225 14.5455C33.6223 15.2218 34.7599 15.2218 35.4559 14.5418C35.7889 14.2146 35.976 13.7746 35.9798 13.3164C35.9798 12.8509 35.7927 12.4073 35.4521 12.08ZM35.0068 12.5164C34.554 12.0727 33.8168 12.0727 33.3603 12.5164C32.9038 12.96 32.9038 13.6727 33.3603 14.1164C33.8168 14.56 34.5503 14.56 35.0068 14.1164C35.4634 13.6727 35.4634 12.96 35.0068 12.5164Z" fill="#D61627"/>
<path fill-rule="evenodd" clip-rule="evenodd" d="M12.5468 6.77468C22.0817 4.02923 28.6379 3.50195 36.5749 3.50195H37.952C45.8105 3.50195 52.3592 4.04377 61.8417 6.77468C62.4816 6.96013 63.0541 7.30559 63.0541 7.9565V16.0474C63.0541 16.6947 62.4816 17.0401 61.8417 17.2256C52.3592 19.9565 45.8217 20.4983 37.952 20.4983H36.9416C28.8437 20.4983 22.2276 20.0147 12.5468 17.2256C11.9069 17.0401 11.3306 16.6947 11.3306 16.0474V7.9565C11.3306 7.30559 11.9069 6.96013 12.5468 6.77468ZM36.747 5.27286C29.3376 5.30195 22.6991 5.57468 14.0137 7.7565C13.3663 7.92014 12.8012 8.29104 12.8012 8.93832V15.062C12.8012 15.7129 13.3663 16.0801 14.0137 16.2438C22.6205 18.4074 29.2329 18.6947 36.5749 18.7274H37.821C45.1631 18.6947 51.7642 18.4074 60.3823 16.2438C61.0259 16.0801 61.5947 15.7129 61.5947 15.062V8.93832C61.5947 8.29104 61.0259 7.92014 60.3823 7.7565C51.6968 5.57468 45.0396 5.30195 37.6489 5.27286H36.747Z" fill="#D61627"/>
</g>
<defs>
<clipPath id="clip0_13495_286072">
<rect width="60" height="20" fill="white" transform="translate(0.399902)"/>
</clipPath>
</defs>
</svg>
