<svg xmlns="http://www.w3.org/2000/svg" width="114" height="36" viewBox="0 0 114 36" fill="none"><path fill-rule="evenodd" clip-rule="evenodd" d="M81.2913 2.74291C79.2854 4.02025 74.5543 7.00433 72.7882 8.11559C71.7118 8.71862 69.2188 8.98194 67.8088 6.89109C67.7835 6.85335 65.9334 4.31105 65.8579 4.21533C65.8049 4.14768 64.6088 2.19665 61.9436 2.13565C61.5499 2.12538 59.5921 2.11391 57.6818 3.3079C55.1427 4.90322 49.2374 8.61595 49.2374 8.61595C49.2358 8.61595 49.2358 8.61927 49.2328 8.61927C46.8054 10.1466 44.9141 11.3358 44.9141 11.3358L47.1486 14.354C48.194 15.7814 50.5513 16.8857 52.5956 15.5951C52.5956 15.5951 60.1492 10.7847 60.177 10.7708C63.4437 8.80046 65.9644 8.80046 67.6375 9.53364C69.1392 10.2315 70.4457 11.9702 70.4457 11.9702C70.4457 11.9702 72.153 14.2972 72.4543 14.7043C73.4257 16.0194 75.0337 15.5027 75.0337 15.5027C75.0337 15.5027 75.6296 15.4284 76.5278 14.842C76.5278 14.842 83.8444 10.1765 83.849 10.175C86.1723 8.67605 88.3031 8.39612 89.3921 8.50634C92.803 8.84726 93.8627 11.4678 95.3416 13.2959C96.2126 14.3712 96.9984 14.9818 98.2003 14.951C98.99 14.9326 99.8822 14.406 100.014 14.3108L108.775 8.75033C108.775 8.75033 107.876 7.26131 106.035 4.94459C104.387 2.87759 102.637 3.8128 101.242 4.57286C100.655 4.89174 98.5312 6.44569 96.4268 7.52976C94.9272 8.3019 92.7734 8.06969 91.5929 6.46562C91.5224 6.36808 89.6126 3.82548 89.4119 3.51264C88.6411 2.45091 87.1372 1.5 85.2099 1.5C84.038 1.5 82.7081 1.85149 81.2913 2.74291Z" fill="url(#paint0_linear)"></path><path fill-rule="evenodd" clip-rule="evenodd" d="M4.38527 23.3448C4.38527 21.7298 4.3578 20.3744 4.27539 19.1658H7.13441L7.26846 21.2421H7.34867C7.99668 20.1449 9.18171 18.8474 11.3922 18.8474C13.1175 18.8474 14.4652 19.8876 15.0302 21.4436H15.0857C15.5447 20.6655 16.082 20.0894 16.7015 19.6843C17.43 19.1374 18.2659 18.8474 19.344 18.8474C21.5267 18.8474 23.7356 20.4325 23.7356 24.9299V33.2018H20.5016V25.4496C20.5016 23.1151 19.7481 21.7298 18.1587 21.7298C17.0248 21.7298 16.1883 22.596 15.8403 23.6054C15.7584 23.9503 15.6777 24.383 15.6777 24.7836V33.2018H12.4426V25.0736C12.4426 23.1151 11.716 21.7298 10.1794 21.7298C8.93943 21.7298 8.10491 22.7691 7.80769 23.747C7.67199 24.0951 7.6176 24.4975 7.6176 24.9003V33.2018H4.38527V23.3448Z" fill="#003D79"></path><path fill-rule="evenodd" clip-rule="evenodd" d="M36.3355 29.8304C36.3355 31.098 36.3894 32.3353 36.5243 33.2025H33.5315L33.3166 31.6464H33.2348C32.4266 32.7427 31.0521 33.5197 29.3542 33.5197C26.7122 33.5197 25.2305 31.4749 25.2305 29.3407C25.2305 25.7942 28.1672 24.0087 33.0192 24.0372V23.8058C33.0192 22.8831 32.6684 21.3564 30.3508 21.3564C29.0564 21.3564 27.7082 21.7891 26.8193 22.3934L26.1716 20.0894C27.1437 19.454 28.8432 18.848 30.9169 18.848C35.1233 18.848 36.3355 21.7033 36.3355 24.7572V29.8304ZM33.0999 26.3432C30.7554 26.2851 28.5188 26.8326 28.5188 28.9659C28.5188 30.348 29.3542 30.9834 30.4057 30.9834C31.7248 30.9834 32.6967 30.0607 32.9922 29.0523C33.0724 28.7929 33.0999 28.5035 33.0999 28.2738V26.3432Z" fill="#003D79"></path><path fill-rule="evenodd" clip-rule="evenodd" d="M38.6278 23.3448C38.6278 21.7298 38.5981 20.3744 38.5195 19.1658H41.428L41.5906 21.2697H41.6703C42.237 20.1758 43.6654 18.8474 45.8481 18.8474C48.1399 18.8474 50.5116 20.4325 50.5116 24.8724V33.2018H47.1969V25.2769C47.1969 23.2579 46.4961 21.7298 44.69 21.7298C43.3693 21.7298 42.4532 22.7388 42.1018 23.8057C41.9958 24.1236 41.9678 24.5569 41.9678 24.9576V33.2018H38.6278V23.3448Z" fill="#003D79"></path><path fill-rule="evenodd" clip-rule="evenodd" d="M64.885 13.5261V29.2523C64.885 30.6932 64.938 32.2525 64.9922 33.2025H62.0271L61.8944 30.9834H61.8395C61.0574 32.5406 59.4648 33.5197 57.5532 33.5197C54.428 33.5197 51.9475 30.6668 51.9475 26.3433C51.92 21.6446 54.6691 18.8481 57.8224 18.8481C59.6277 18.8481 60.9226 19.6562 61.5145 20.6946H61.5692V13.5261H64.885ZM61.5692 25.0152C61.5692 24.7299 61.5414 24.3824 61.4895 24.0951C61.1926 22.7115 60.1408 21.5868 58.6313 21.5868C56.5022 21.5868 55.316 23.6054 55.316 26.2284C55.316 28.7929 56.5022 30.6668 58.6044 30.6668C59.9515 30.6668 61.1382 29.6871 61.4612 28.1599C61.5414 27.8414 61.5692 27.496 61.5692 27.12V25.0152Z" fill="#003D79"></path><path fill-rule="evenodd" clip-rule="evenodd" d="M67.2275 33.2017H70.573V19.1666H67.2275V33.2017Z" fill="#003D79"></path><path fill-rule="evenodd" clip-rule="evenodd" d="M72.9151 23.6905C72.9151 21.789 72.8871 20.4324 72.8066 19.1655H75.6912L75.7967 21.8451H75.9085C76.5543 19.8564 78.0909 19.1655 79.4919 19.1655C79.8146 19.1655 80.0031 19.1064 80.2734 19.1655V22.2793C80.0031 22.2217 79.7072 22.1641 79.3029 22.1641C77.713 22.1641 76.634 23.2584 76.3378 24.8426C76.2854 25.1599 76.231 25.5362 76.231 25.9416V33.2023H72.9151V23.6905Z" fill="#003D79"></path><path fill-rule="evenodd" clip-rule="evenodd" d="M81.8105 33.2017H85.1511V19.1666H81.8105V33.2017Z" fill="#003D79"></path><defs><linearGradient id="paint0_linear" x1="44.9141" y1="16.1667" x2="108.775" y2="16.1667" gradientUnits="userSpaceOnUse"><stop stop-color="#FFCA06"></stop><stop offset="0.330844" stop-color="#FBAA18"></stop><stop offset="0.694742" stop-color="#FFC907"></stop><stop offset="1" stop-color="#FAA619"></stop></linearGradient></defs></svg>