<svg xmlns="http://www.w3.org/2000/svg" width="117" height="36" viewBox="0 0 117 36" fill="none"><path fill-rule="evenodd" clip-rule="evenodd" d="M28.456 24.5933C29.7575 22.7042 32.5377 22.7447 33.0512 24.6722C33.505 23.9945 34.0294 23.4259 34.8627 23.2714C36.4812 22.9715 37.7792 23.6864 37.8073 25.4196C37.829 26.7573 37.8333 28.0954 37.8475 29.4334C37.8494 29.6183 37.8584 29.8036 37.8729 29.9879C37.9101 30.4582 38.2307 30.5896 38.6357 30.6259C38.7631 30.6373 38.9465 30.5909 38.926 30.8267C38.9056 31.0605 38.7229 30.983 38.5998 30.9836C37.5186 30.9891 36.4373 30.9893 35.3562 30.9833C35.2339 30.9826 35.0493 31.0646 35.0236 30.8351C34.9934 30.5663 35.2157 30.6289 35.345 30.6209C35.8228 30.5909 36.0418 30.3163 36.0462 29.8726C36.0627 28.2371 36.1616 26.599 35.9826 24.9672C35.9314 24.5004 35.7483 24.0602 35.2383 23.9205C34.7054 23.7745 34.2201 23.9077 33.8419 24.3291C33.4099 24.8103 33.1448 25.3698 33.1429 26.0259C33.1391 27.2645 33.1375 28.5033 33.1585 29.7416C33.1699 30.4124 33.2874 30.5196 33.9396 30.6266C34.0538 30.6454 34.2056 30.5925 34.2025 30.806C34.1991 31.0486 34.0281 30.9844 33.9014 30.9848C32.8202 30.9883 31.7389 30.9892 30.6577 30.9835C30.5362 30.9828 30.3541 31.0639 30.3352 30.8252C30.3162 30.5874 30.4988 30.6314 30.6243 30.6246C31.084 30.5999 31.3506 30.3668 31.3557 29.9065C31.3732 28.2994 31.4633 26.6904 31.3034 25.0862C31.2525 24.5759 31.0895 24.0744 30.5288 23.9189C29.934 23.7541 29.4444 24.0035 29.059 24.4661C28.6907 24.9083 28.4898 25.4265 28.4815 25.9937C28.4627 27.2604 28.4669 28.5278 28.4817 29.7948C28.4887 30.3873 28.6379 30.5284 29.229 30.6242C29.3574 30.645 29.533 30.5931 29.5094 30.8304C29.4857 31.0703 29.3038 30.9823 29.1848 30.983C28.1036 30.9895 27.0224 30.9902 25.9412 30.9823C25.8117 30.9814 25.5995 31.0833 25.5901 30.8117C25.5817 30.5718 25.7742 30.6457 25.8962 30.6264C26.5155 30.5286 26.6738 30.3749 26.6785 29.7329C26.6909 28.053 26.6927 26.3729 26.6807 24.693C26.6759 24.0216 26.5412 23.8877 25.8813 23.7687C25.7541 23.7457 25.6196 23.7647 25.6321 23.5678C25.6447 23.3675 25.7919 23.4043 25.9121 23.3957C26.6497 23.3431 27.3886 23.3042 28.1246 23.2356C28.3981 23.2102 28.4758 23.2962 28.4605 23.5577C28.4418 23.8773 28.456 24.1989 28.456 24.5933" fill="#3A3A3A"></path><path fill-rule="evenodd" clip-rule="evenodd" d="M112.914 13.6524C112.512 14.3887 112.015 15.0634 111.555 15.7618C108.313 20.6867 105.064 25.607 101.828 30.5362C101.663 30.7877 101.469 30.9214 101.193 30.969C101.083 30.9881 100.996 30.9548 100.973 30.8298C100.998 30.7358 101.015 30.6367 101.111 30.5814C101.631 29.521 102.059 28.4214 102.524 27.3376C104.349 23.0751 106.185 18.8166 107.999 14.5491C108.131 14.2385 108.283 13.9537 108.662 13.8954C109.932 13.7608 111.205 13.6727 112.475 13.5537C112.631 13.5391 112.789 13.5236 112.914 13.6524" fill="#6E9023"></path><path fill-rule="evenodd" clip-rule="evenodd" d="M105.136 4.68332C104.558 6.64707 103.984 8.61219 103.4 10.5744C102.619 13.2012 101.833 15.8267 101.041 18.4503C100.97 18.6874 100.968 19.0649 100.525 18.8758C100.477 18.6639 100.418 18.4528 100.476 18.2321C100.535 17.5923 100.483 16.9529 100.484 16.3136C100.485 14.7207 100.461 13.1274 100.491 11.535C100.518 10.0693 100.351 8.60954 100.399 7.14469C100.405 6.93185 100.387 6.71764 100.436 6.50797C100.494 6.28521 100.681 6.20609 100.868 6.13577C102.158 5.65028 103.448 5.16291 104.737 4.67323C104.869 4.62291 105.006 4.56429 105.136 4.68332" fill="#B12B37"></path><path fill-rule="evenodd" clip-rule="evenodd" d="M95.582 10.4084C96.0336 11.88 96.4938 13.349 96.9352 14.8237C97.9814 18.3196 99.0169 21.8188 100.064 25.3146C100.133 25.5467 100.171 25.756 100 25.9484C99.8721 26.0924 99.7242 26.0552 99.5804 25.9645C99.6119 25.8987 99.6809 25.8586 99.7015 25.786C99.6345 25.4573 99.3842 25.2235 99.2609 24.9247C97.5606 21.8339 95.8969 18.7235 94.2034 15.6295C93.8355 14.9576 93.4322 14.3014 93.1416 13.5879C93.1405 13.4328 93.2436 13.3282 93.327 13.2161C93.9597 12.3647 94.5971 11.5168 95.2384 10.6718C95.3241 10.5589 95.3813 10.3821 95.582 10.4084" fill="#007591"></path><path fill-rule="evenodd" clip-rule="evenodd" d="M101.127 30.6539C101.075 30.7124 101.024 30.771 100.972 30.8296C100.822 30.6573 100.852 30.4555 100.895 30.2611C101.925 25.6002 102.959 20.9401 103.991 16.2798C104.435 14.2747 104.878 12.2692 105.323 10.2642C105.344 10.1683 105.383 10.0762 105.414 9.98225C105.56 9.96747 105.612 10.0823 105.655 10.1803C106.108 11.2009 106.621 12.1935 107.077 13.2127C107.094 13.2512 107.096 13.295 107.101 13.3374C107.106 13.483 107.057 13.6175 107.01 13.7515C105.364 18.5203 103.756 23.3026 102.103 28.0695C101.802 28.9401 101.527 29.8207 101.127 30.6539" fill="#3F7937"></path><path fill-rule="evenodd" clip-rule="evenodd" d="M101.127 30.654C101.413 29.7925 101.693 28.9292 101.985 28.07C102.68 26.0258 103.383 23.984 104.081 21.9407C105.063 19.0645 106.044 16.1877 107.026 13.3113C107.121 13.0883 107.348 13.0445 107.531 12.9451C107.899 12.7456 107.917 12.7133 107.693 12.3696C107.203 11.6187 106.734 10.854 106.248 10.1009C106.154 9.95573 105.989 9.82056 106.095 9.6084C107.782 10.3772 109.469 11.1452 111.155 11.9154C111.683 12.1565 112.208 12.4037 112.734 12.6481C112.665 12.8712 112.468 12.819 112.312 12.8344C111.181 12.9455 110.046 12.9246 108.912 12.9252C108.267 12.9255 108.189 13.0404 108.405 13.6521C108.448 13.7733 108.532 13.8744 108.564 13.9995C108.064 14.2588 108.019 14.805 107.828 15.2393C106.803 17.5754 105.81 19.9263 104.809 22.273C103.746 24.7632 102.694 27.2578 101.615 29.7408C101.48 30.0523 101.451 30.4376 101.127 30.654" fill="#7FB03A"></path><path fill-rule="evenodd" clip-rule="evenodd" d="M100.544 18.3425C100.469 18.5178 100.733 18.7053 100.525 18.8758C100.366 18.8322 100.321 18.7082 100.271 18.5656C98.6883 13.9942 97.1004 9.42449 95.5151 4.85394C95.4973 4.80225 95.5045 4.74192 95.5 4.6857C95.669 4.60931 95.8021 4.71561 95.9367 4.78208C96.8256 5.22126 97.7101 5.66933 98.5968 6.11252C98.7613 6.19472 98.9304 6.27589 99.0014 6.46797C99.2589 7.78158 99.3969 9.11271 99.5824 10.4364C99.8982 12.6902 100.239 14.9408 100.503 17.2015C100.547 17.5774 100.615 17.9595 100.544 18.3425" fill="#762624"></path><path fill-rule="evenodd" clip-rule="evenodd" d="M21.8164 24.6699C22.1561 24.3399 22.3945 23.9716 22.7362 23.6887C23.1739 23.3266 23.6639 23.1422 24.2352 23.2249C24.8125 23.3084 25.2468 23.8056 25.2147 24.3361C25.1845 24.8357 24.7534 25.1782 24.1665 25.1856C23.7783 25.1905 23.5758 24.9932 23.4584 24.6386C23.299 24.1566 22.9808 24.08 22.6049 24.4307C22.1187 24.8845 21.9227 25.4803 21.9104 26.1212C21.887 27.3305 21.894 28.5408 21.9059 29.7504C21.9118 30.3634 22.0634 30.5032 22.6743 30.6086C22.8121 30.6323 23.0662 30.5422 23.0309 30.837C23.0003 31.0912 22.7875 30.9803 22.6579 30.9813C21.5628 30.9906 20.4677 30.9901 19.3726 30.9821C19.2431 30.981 19.0278 31.0839 19.0193 30.8148C19.0107 30.5467 19.2354 30.6436 19.3634 30.6213C19.9169 30.5249 20.0943 30.3751 20.0996 29.8175C20.1159 28.0813 20.1181 26.3447 20.1005 24.6085C20.0943 24.0038 19.939 23.8728 19.3143 23.7622C19.2086 23.7435 19.0843 23.7799 19.0805 23.5988C19.0765 23.4109 19.1865 23.4034 19.3254 23.3941C20.0488 23.3461 20.7725 23.3003 21.4946 23.2359C21.7306 23.2149 21.8315 23.2676 21.8206 23.5226C21.8043 23.9044 21.8164 24.2874 21.8164 24.6699" fill="#3A3A3A"></path><path fill-rule="evenodd" clip-rule="evenodd" d="M99.8505 25.8851C99.7783 25.9727 99.6722 25.945 99.5801 25.9647C99.0324 25.5066 98.627 24.92 98.1681 24.3833C95.1719 20.8793 92.1861 17.3668 89.1979 13.856C89.1248 13.7703 89.065 13.6731 88.999 13.5813C89.0578 13.2846 89.2813 13.4122 89.431 13.4363C90.2633 13.5696 91.0884 13.7429 91.9154 13.9037C92.0881 13.9606 92.1909 14.0975 92.2853 14.2403C94.6026 17.7442 96.9143 21.2516 99.1965 24.7786C99.2351 24.8383 99.2693 24.9004 99.3012 24.9636C99.4663 25.2815 99.6851 25.5673 99.8505 25.8851" fill="#005874"></path><path fill-rule="evenodd" clip-rule="evenodd" d="M47.4469 26.9482C47.4469 25.9787 47.428 25.1666 47.4555 24.356C47.4677 23.9949 47.3925 23.8183 46.9997 23.8912C46.9061 23.9085 46.798 23.8984 46.7074 23.8683C46.6062 23.8346 46.6454 23.7247 46.6378 23.6446C46.6263 23.525 46.6793 23.4607 46.8015 23.4437C47.9136 23.2895 48.2182 22.4354 48.4568 21.5256C48.505 21.3418 48.4827 21.1301 48.7719 21.1007C49.0969 21.0676 49.3016 21.0564 49.2501 21.508C49.1908 22.0286 49.2397 22.5605 49.2173 23.0866C49.2066 23.3393 49.2634 23.4446 49.5404 23.4267C49.9229 23.4019 50.3084 23.4278 50.6922 23.4176C50.8911 23.4123 50.9719 23.4785 50.9691 23.686C50.966 23.9053 50.8334 23.8962 50.6844 23.8953C50.3002 23.8933 49.9156 23.9072 49.5322 23.8901C49.3 23.8799 49.214 23.9383 49.216 24.1908C49.2289 25.8565 49.225 27.5223 49.2285 29.1881C49.2288 29.3016 49.2369 29.4162 49.2536 29.5285C49.4109 30.5817 49.9418 30.8315 50.856 30.2837C50.9672 30.2171 51.061 30.0681 51.1867 30.2863C51.2818 30.4514 51.2344 30.535 51.0986 30.6304C50.289 31.1983 49.4035 31.3573 48.4653 31.0605C47.8854 30.8769 47.572 30.4349 47.5106 29.8207C47.4098 28.812 47.4634 27.8005 47.4469 26.9482" fill="#3A3A3A"></path><path fill-rule="evenodd" clip-rule="evenodd" d="M100.544 18.3424C100.396 17.2194 100.253 16.0958 100.097 14.9739C99.9095 13.628 99.7089 12.284 99.5185 10.9386C99.3162 9.50891 99.1189 8.07858 98.9208 6.64834C98.9092 6.56401 98.9108 6.47797 98.9062 6.39269C98.8636 6.17857 99.0093 6.04263 99.1298 5.9119C99.319 5.70658 99.2561 5.61046 99.0236 5.51971C98.1101 5.16299 97.1919 4.81805 96.2862 4.44159C96.1486 4.38434 95.9736 4.37426 95.9165 4.18611C96.045 4.08349 96.1846 4.12852 96.3211 4.14629C97.1971 4.0594 98.0759 4.10152 98.9534 4.09058C100.187 4.07512 101.421 4.07708 102.654 4.07153C103.197 4.01129 103.738 4.04991 104.296 4.11494C103.628 4.53481 102.863 4.66365 102.143 4.91324C101.408 5.16803 100.652 5.35908 99.9004 5.63054C100.031 5.97522 100.51 5.99307 100.54 6.38423C100.641 10.207 100.62 14.0307 100.619 17.8541C100.619 18.0171 100.683 18.1977 100.544 18.3424" fill="#D71936"></path><path fill-rule="evenodd" clip-rule="evenodd" d="M99.2573 25.0143C96.9002 21.4351 94.543 17.8558 92.1857 14.2767C92.1232 14.1821 92.0578 14.0897 91.9936 13.9962C91.9817 13.9704 91.9668 13.9446 91.964 13.9172C91.8926 13.2047 91.8948 13.1807 91.174 13.1231C90.4023 13.0612 89.6279 13.028 88.856 12.9628C88.8371 12.8223 88.954 12.8144 89.0388 12.7715C90.88 11.8403 92.7206 10.9081 94.5619 9.97745C94.5857 9.96532 94.6175 9.96916 94.6455 9.96558C94.7706 10.1727 94.5954 10.2789 94.4912 10.3998C93.8317 11.1635 93.1857 11.9384 92.5336 12.7082C92.2824 13.0047 92.299 13.0477 92.6703 13.2139C92.8611 13.2993 93.0846 13.3391 93.1883 13.5574C93.6407 14.3767 94.097 15.1937 94.5446 16.0157C96.1116 18.8931 97.6761 21.7721 99.2392 24.6516C99.2858 24.7374 99.3089 24.8359 99.343 24.9285C99.3755 25.0181 99.3343 25.034 99.2573 25.0143" fill="#0096B8"></path><mask id="mask0" maskUnits="userSpaceOnUse" x="108" y="12" width="6" height="3"><path fill-rule="evenodd" clip-rule="evenodd" d="M108.135 12.6479H113V14.0022H108.135V12.6479Z" fill="white"></path></mask><g mask="url(#mask0)"><path fill-rule="evenodd" clip-rule="evenodd" d="M108.565 13.9993C108.282 14.0307 108.288 13.7967 108.261 13.6341C108.114 12.768 107.905 12.7842 108.891 12.798C110.094 12.815 111.295 12.7796 112.496 12.7143C112.581 12.7096 112.668 12.7166 112.734 12.6479C113.136 12.9213 112.981 13.2945 112.914 13.6523C111.719 13.7596 110.525 13.8695 109.33 13.9726C109.076 13.9944 108.82 13.991 108.565 13.9993" fill="#A4C450"></path></g><path fill-rule="evenodd" clip-rule="evenodd" d="M100.54 6.38431C100.236 6.13789 99.9316 5.89155 99.5732 5.60122C101.15 5.10906 102.674 4.63305 104.199 4.15713C104.196 4.12859 104.193 4.10014 104.191 4.07169H102.654C103.255 3.97744 103.864 3.99214 104.463 4.02555C104.798 4.04426 105.011 4.35878 105.136 4.68347C104.456 4.82769 103.84 5.15135 103.19 5.37957C102.299 5.69247 101.423 6.0474 100.54 6.38431" fill="#DB505E"></path><path fill-rule="evenodd" clip-rule="evenodd" d="M93.1883 13.5575C92.9415 13.4493 92.6995 13.3279 92.4468 13.2365C92.1609 13.1331 92.1435 12.988 92.3291 12.7726C92.8657 12.1499 93.4143 11.5367 93.9283 10.8958C94.1726 10.5912 94.5134 10.3572 94.6455 9.96565C94.8313 9.76982 94.9688 9.93575 95.1061 10.0348C95.2694 10.1527 95.4763 10.2169 95.5822 10.4083C94.7842 11.4581 93.9863 12.5078 93.1883 13.5575" fill="#2FB7E6"></path><path fill-rule="evenodd" clip-rule="evenodd" d="M106.095 9.60836C106.576 10.5047 107.164 11.3337 107.705 12.1923C108.079 12.7847 108.087 12.7792 107.481 13.0822C107.329 13.1582 107.178 13.2349 107.026 13.3112C106.553 12.3107 106.081 11.3097 105.605 10.3104C105.551 10.1965 105.478 10.0915 105.414 9.98235C105.574 9.73567 105.791 9.59256 106.095 9.60836" fill="#5D8B27"></path><path fill-rule="evenodd" clip-rule="evenodd" d="M96.3216 4.14646C96.2233 4.20191 96.0947 4.11724 95.9925 4.22174C97.0507 4.63511 98.0972 5.05208 99.1507 5.45016C99.4574 5.56594 99.5507 5.66838 99.2646 5.92181C99.1198 6.04998 99.0245 6.23411 98.9067 6.39286C97.7714 5.82381 96.6362 5.25484 95.501 4.68578C95.6454 4.09289 95.6761 4.07272 96.3216 4.14646" fill="#AE2C35"></path><path fill-rule="evenodd" clip-rule="evenodd" d="M88.8564 12.9629C88.9955 12.8674 89.1541 12.8741 89.3099 12.8842C90.157 12.9392 91.0037 13.0001 91.851 13.053C92.0093 13.0628 92.0898 13.1263 92.0814 13.2865C92.069 13.5251 92.131 13.773 91.9941 13.9963C91.0804 13.9309 90.2031 13.6532 89.299 13.5307C89.1857 13.5155 89.0822 13.4538 88.9999 13.581C88.7403 13.4242 88.8615 13.1789 88.8564 12.9629" fill="#007592"></path><path fill-rule="evenodd" clip-rule="evenodd" d="M73.9729 27.5371C73.9557 28.02 73.9413 28.503 73.8212 28.9751C73.5743 29.9453 72.6719 30.6501 71.6693 30.6577C71.1679 30.6614 70.8001 30.4403 70.5541 30.0079C69.9998 29.0341 70.3813 27.7352 71.3748 27.2297C72.127 26.8469 72.9491 26.778 73.7706 26.7083C73.9176 26.6957 73.9776 26.7504 73.9739 26.8973C73.9684 27.1104 73.9725 27.3238 73.9729 27.5371M92.0941 30.7168C91.6725 30.6027 91.3637 30.3359 91.1346 29.9806C90.3797 28.8098 89.6367 27.6314 88.8822 26.4604C88.7883 26.3147 88.7941 26.2221 88.9154 26.0969C89.4201 25.5754 89.901 25.0304 90.4175 24.5213C90.7951 24.149 91.2492 23.8803 91.7715 23.7459C91.8729 23.7198 92.0449 23.76 92.0269 23.5956C92.0058 23.4026 91.823 23.4897 91.7139 23.4887C90.8746 23.4812 90.0352 23.4794 89.1959 23.4908C89.0814 23.4923 88.8675 23.3736 88.8576 23.6005C88.8494 23.7843 89.0519 23.7124 89.1633 23.7336C89.7915 23.8528 89.9434 24.1813 89.6127 24.7359C89.533 24.8697 89.442 25 89.338 25.1153C88.5189 26.0242 87.6953 26.929 86.7834 27.934V27.5285C86.7843 25.9339 86.7773 24.3392 86.7891 22.7448C86.795 21.9479 86.8368 21.1514 86.8577 20.3546C86.8611 20.2277 86.9308 20.0503 86.6815 20.0637C86.0565 20.0975 85.4314 20.1254 84.8063 20.1562C84.7337 20.1597 84.6581 20.1712 84.6475 20.26C84.6331 20.3819 84.7254 20.3816 84.8121 20.3986C85.6384 20.5602 85.6815 20.6022 85.6827 21.4441C85.687 24.1636 85.6844 26.883 85.6828 29.6023C85.6826 29.8152 85.6746 30.0264 85.6205 30.2373C85.5521 30.504 85.3847 30.6492 85.1316 30.7155C83.9924 31.0142 83.4868 30.6328 83.471 29.4637C83.4683 29.2645 83.468 29.0651 83.4673 28.8658C83.4634 27.7411 83.4818 26.6157 83.4493 25.4918C83.4232 24.5856 83.1253 23.7717 82.1907 23.4546C80.9924 23.0481 79.5681 23.2374 78.7727 24.5205C78.6964 24.6437 78.6489 24.7969 78.4592 24.908C78.4592 24.4375 78.4583 24.0156 78.4596 23.5936C78.4601 23.441 78.4585 23.3134 78.2365 23.3346C77.6562 23.3899 77.0741 23.4275 76.4931 23.4751C76.4161 23.4814 76.3056 23.4611 76.3145 23.593C76.3202 23.6784 76.3951 23.6911 76.4661 23.7122C77.2386 23.9423 77.3232 24.0236 77.3314 24.8185C77.3472 26.3559 77.3472 27.8937 77.3328 29.4312C77.3214 30.6542 77.112 30.831 75.8837 30.7455C75.2914 30.7043 75.1293 30.5664 75.0672 29.9792C74.9562 28.9277 75.0548 27.8741 75.0596 26.8214C75.0628 26.0968 75.1451 25.3705 75.0102 24.6484C74.8939 24.0254 74.575 23.5578 73.9497 23.3823C72.7717 23.0514 71.6121 23.1144 70.512 23.6787C70.0582 23.9113 69.7091 24.2719 69.5664 24.7831C69.4555 25.1805 69.5777 25.3768 69.9439 25.4366C70.4922 25.5261 70.8058 25.3814 70.8223 24.9918C70.8725 23.8042 71.5779 23.3237 72.7867 23.4624C73.4365 23.5368 73.7754 23.8679 73.8962 24.5116C74.0052 25.0924 73.9628 25.6732 73.9208 26.2565C73.9059 26.4645 73.7953 26.464 73.6441 26.4787C73.149 26.527 72.6523 26.5701 72.1614 26.6477C71.4041 26.7677 70.6422 26.8874 69.9834 27.3273C69.2445 27.8205 68.9271 28.6663 69.1365 29.5746C69.3347 30.4345 69.8708 30.9017 70.8113 31.0262C71.6038 31.1311 72.3316 30.9677 72.9993 30.515C73.3345 30.2876 73.6263 30.0068 73.9576 29.7249C74.0502 30.8713 74.1723 30.9924 75.2573 30.9955C76.5803 30.999 77.9034 30.9922 79.2264 30.9828C79.3345 30.982 79.5285 31.0607 79.5308 30.8722C79.533 30.6862 79.3362 30.7603 79.2242 30.7449C78.7207 30.6752 78.5318 30.513 78.5049 30.0158C78.434 28.7075 78.4081 27.3967 78.5085 26.0899C78.5655 25.3487 78.855 24.6811 79.4084 24.1618C79.9524 23.6515 80.6025 23.5107 81.3066 23.737C81.9589 23.9467 82.2246 24.484 82.2788 25.1134C82.4205 26.7607 82.3771 28.4113 82.3025 30.0608C82.2808 30.5408 81.9807 30.7217 81.5406 30.7458C81.4377 30.7514 81.277 30.714 81.2915 30.8888C81.303 31.0278 81.4445 30.985 81.5357 30.985C83.5559 30.9872 85.576 30.9872 87.5962 30.9849C87.687 30.9849 87.8283 31.031 87.8424 30.8921C87.8607 30.7138 87.6975 30.7613 87.5963 30.7467C86.9994 30.6608 86.8312 30.4973 86.7996 29.9008C86.7763 29.4605 86.7861 29.0184 86.7872 28.5771C86.7874 28.4955 86.7891 28.3909 86.8359 28.336C87.2176 27.8881 87.6101 27.4496 88.0192 26.9858C88.7779 28.2474 89.5631 29.4168 90.1995 30.6735C90.3178 30.9075 90.4519 31.0075 90.7199 30.9931C91.1597 30.9695 91.6016 30.9909 92.0426 30.9834C92.1396 30.9817 92.2947 31.0496 92.309 30.8674C92.3205 30.7196 92.1808 30.7402 92.0941 30.7168" fill="#3A3A3A"></path><path fill-rule="evenodd" clip-rule="evenodd" d="M10.0457 24.1634C9.83327 25.3059 9.25698 25.8512 8.11165 25.9734C6.94865 26.0977 6.94865 26.0977 6.94865 24.9396C6.94865 24.3847 6.94865 23.8297 6.94865 23.2749C6.94865 22.4923 6.96197 21.7094 6.94173 20.9274C6.93422 20.6371 7.03326 20.5441 7.30407 20.5816C7.38774 20.5932 7.4744 20.5833 7.55969 20.5835C9.29403 20.5871 10.0902 21.3696 10.1224 23.1021C10.129 23.4582 10.1113 23.8108 10.0457 24.1634M11.9844 23.0206C11.9336 21.4873 11.1775 20.6115 9.66478 20.3128C8.60816 20.1039 7.54043 20.1884 6.61102 20.167C5.75162 20.167 5.0266 20.1683 4.30167 20.1658C4.16071 20.1653 4.05117 20.1741 4.05689 20.3641C4.06142 20.5096 4.11546 20.5634 4.25872 20.5669C5.09746 20.5872 5.18856 20.9566 5.18924 21.6314C5.19172 24.2632 5.19718 26.895 5.18608 29.5267C5.18258 30.3763 5.08431 30.4659 4.25334 30.5806C4.11537 30.5997 4.00199 30.6091 4.00003 30.7897C3.99755 31.0153 4.1532 30.9862 4.29373 30.9864C4.76287 30.9868 5.23193 30.9866 5.70108 30.9866C6.42601 30.9866 7.15112 30.9914 7.87588 30.9821C8.00582 30.9804 8.21337 31.0817 8.22746 30.8112C8.24232 30.5251 8.02375 30.5942 7.8711 30.5798C7.16426 30.5134 6.97157 30.3262 6.96081 29.6186C6.94613 28.6514 6.95765 27.6838 6.94408 26.7167C6.94092 26.4922 7.01263 26.4275 7.23368 26.4271C7.73074 26.4262 8.22891 26.4106 8.7247 26.3751C10.9871 26.2126 12.0536 25.1107 11.9844 23.0206" fill="#3A3A3A"></path><path fill-rule="evenodd" clip-rule="evenodd" d="M66.76 29.0576C66.4752 29.9671 65.7911 30.3853 64.9136 30.5498C64.0985 30.7027 63.2716 30.6345 62.4492 30.6518C62.1998 30.6572 62.2251 30.4997 62.2252 30.342C62.2255 29.5605 62.2253 28.7789 62.2253 27.9974C62.2253 27.23 62.2283 26.4627 62.2231 25.6953C62.2219 25.5035 62.2362 25.3705 62.4888 25.3753C63.3678 25.3922 64.25 25.3384 65.1188 25.5279C66.0605 25.7334 66.6462 26.3029 66.8425 27.2484C66.9684 27.8549 66.9468 28.4609 66.76 29.0576M62.452 20.4956C63.2472 20.514 64.048 20.4399 64.8342 20.6092C66.0329 20.8674 66.625 21.5752 66.6129 22.7087C66.6001 23.9067 65.9881 24.6636 64.8172 24.9099C64.0298 25.0756 63.2294 24.9947 62.4343 25.015C62.2152 25.0206 62.2244 24.8837 62.2247 24.735C62.2262 24.0658 62.2254 23.3967 62.2253 22.7275C62.2253 22.0867 62.2258 21.4461 62.225 20.8053C62.2248 20.6454 62.2048 20.4899 62.452 20.4956M66.2771 25.4452C65.8842 25.331 65.4803 25.2551 64.9628 25.1338C65.4922 25.0914 65.8883 25.0046 66.273 24.8657C67.4302 24.4481 67.9759 23.652 67.9138 22.4666C67.8576 21.3954 67.2193 20.6635 66.0348 20.4034C64.0663 19.9712 62.0648 20.236 60.0787 20.1684C59.9928 20.1654 59.8975 20.1681 59.8858 20.2835C59.8734 20.4078 59.9716 20.3967 60.0545 20.4153C60.9393 20.6153 60.9958 20.6679 60.9984 21.5697C61.0058 24.2469 61.001 26.9241 60.9992 29.6012C60.9992 29.7575 60.9915 29.9147 60.9742 30.07C60.9368 30.4064 60.7585 30.618 60.4141 30.6715C60.2879 30.6911 60.162 30.7122 60.0356 30.7307C59.966 30.7407 59.8885 30.7378 59.8853 30.8379C59.8818 30.9511 59.9546 30.9792 60.0494 30.9805C60.0779 30.9808 60.1064 30.982 60.1348 30.9814C62.0245 30.9396 63.9219 31.1099 65.8025 30.8218C66.9535 30.6455 67.8999 30.1475 68.2366 28.9266C68.6834 27.3071 67.8904 25.9142 66.2771 25.4452" fill="#3A3A3A"></path><path fill-rule="evenodd" clip-rule="evenodd" d="M99.2568 25.0143C99.2854 24.9857 99.3139 24.9571 99.3425 24.9285C99.5414 25.2314 99.7805 25.513 99.8505 25.8848C99.6035 25.6283 99.422 25.3269 99.2568 25.0143" fill="#008BAC"></path><path fill-rule="evenodd" clip-rule="evenodd" d="M56.3862 27.7447C56.3825 28.2696 56.3854 28.7976 56.2265 29.3037C56.0421 29.8906 55.6878 30.3285 55.0663 30.4933C54.491 30.6456 54.0222 30.431 53.7609 29.9039C53.1114 28.593 53.7003 27.3222 55.1161 26.9789C55.1985 26.9589 55.2801 26.9341 55.3632 26.9172C56.3881 26.7096 56.3881 26.7098 56.3862 27.7447M58.8352 30.6561C58.2885 30.5545 58.1612 30.4218 58.118 29.8781C58.0944 29.5807 58.0942 29.281 58.0946 28.9823C58.0964 27.7016 58.1272 26.4205 58.0991 25.1405C58.0764 24.1106 57.5356 23.5061 56.5283 23.3103C55.6376 23.1372 54.7444 23.154 53.8684 23.4013C53.2396 23.5789 52.6741 23.8791 52.3372 24.4729C52.151 24.8012 52.0031 25.191 52.3235 25.498C52.6805 25.8402 53.1507 25.824 53.6091 25.7058C53.9941 25.6067 54.0226 25.2798 54.0644 24.9668C54.0832 24.8259 54.0818 24.6819 54.1058 24.5421C54.2242 23.8515 54.6149 23.53 55.3097 23.544C55.9375 23.5567 56.2209 23.8436 56.3174 24.571C56.3436 24.7682 56.3768 24.9668 56.3755 25.1647C56.3725 25.5877 56.5584 26.1266 56.3051 26.3978C56.1009 26.6166 55.5556 26.5074 55.1642 26.562C54.3359 26.6778 53.4939 26.7504 52.7473 27.182C51.8663 27.6914 51.5075 28.6234 51.7744 29.6849C51.9996 30.58 52.7175 31.1174 53.7179 31.1758C54.7744 31.2375 55.6215 30.8184 56.3827 30.0261C56.4556 30.7174 56.8991 30.9256 57.426 30.9758C57.891 31.0202 58.3632 30.9916 58.8322 30.9922C58.9446 30.9923 59.0695 31.0031 59.0691 30.8283C59.0687 30.6588 58.9472 30.677 58.8352 30.6561" fill="#3A3A3A"></path><path fill-rule="evenodd" clip-rule="evenodd" d="M43.8484 28.9869C43.7798 29.4189 43.6076 29.8029 43.2934 30.1095C42.4886 30.8943 41.4661 30.6114 41.1771 29.5289C40.8192 28.1882 41.3413 27.2977 42.6734 26.9765C42.7422 26.9598 42.81 26.9386 42.8791 26.9239C43.9289 26.7014 43.9289 26.7015 43.9264 27.8399C43.9368 28.1695 43.913 28.5794 43.8484 28.9869M46.4095 30.6559C45.8017 30.5359 45.6988 30.4295 45.6571 29.8226C45.63 29.4258 45.6372 29.0262 45.6373 28.6279C45.6373 27.447 45.6703 26.2651 45.6352 25.0853C45.6058 24.1 45.0688 23.5125 44.1023 23.3135C43.2842 23.1451 42.46 23.16 41.6466 23.337C41.0414 23.4687 40.4829 23.7168 40.068 24.2035C39.7784 24.5433 39.5654 24.9474 39.7775 25.375C39.9923 25.8083 40.4627 25.7756 40.8747 25.7619C41.3019 25.7475 41.5566 25.5255 41.5983 25.0798C41.622 24.8259 41.6432 24.5671 41.7105 24.323C41.8692 23.7479 42.2473 23.5141 42.91 23.5449C43.4512 23.57 43.7265 23.8278 43.8395 24.4152C43.9315 24.8935 43.9048 25.3788 43.9337 25.8609C43.9596 26.2905 43.9043 26.5705 43.3711 26.5011C43.1653 26.4744 42.947 26.5296 42.736 26.5587C41.9071 26.673 41.0659 26.7451 40.3152 27.1666C39.4769 27.6371 39.086 28.5155 39.2713 29.49C39.4509 30.4341 40.0611 31.0279 41.0203 31.1526C41.8079 31.2549 42.5515 31.112 43.2086 30.6425C43.4497 30.4701 43.6717 30.2707 43.93 30.0614C43.9847 30.698 44.4198 30.9214 44.9505 30.9719C45.4297 31.0177 45.916 30.9893 46.3992 30.9918C46.4994 30.9923 46.6059 30.9949 46.6189 30.8528C46.6333 30.6961 46.5354 30.6808 46.4095 30.6559" fill="#3A3A3A"></path><path fill-rule="evenodd" clip-rule="evenodd" d="M13.8871 26.2583C13.9676 25.5809 14.0551 24.9053 14.3984 24.2985C14.6582 23.8394 15.0146 23.5226 15.5863 23.5527C16.1377 23.5816 16.3998 23.9623 16.602 24.4012C16.8688 24.9803 16.8976 25.6069 16.9431 26.2301C16.9574 26.4254 16.8809 26.4725 16.7017 26.4686C16.2621 26.4592 15.8224 26.4655 15.3826 26.4655C14.9571 26.4655 14.5315 26.4618 14.106 26.4674C13.9543 26.4695 13.8653 26.4426 13.8871 26.2583M14.1607 26.884C14.8714 26.8872 15.582 26.8854 16.2926 26.8854C16.9038 26.8854 17.5149 26.8854 18.1261 26.8853C18.7859 26.8853 18.792 26.8848 18.7347 26.2208C18.6322 25.0359 18.2241 24.0172 17.0642 23.4993C14.9196 22.5416 12.5815 23.7235 12.0641 26.0049C12.0109 26.2398 11.9667 26.4796 11.9493 26.7194C11.8153 28.5643 12.3752 30.8109 15.2484 31.1407C16.6943 31.3067 17.8952 30.7245 18.6025 29.4557C18.6915 29.2961 18.7805 29.1721 18.5522 29.0454C18.3277 28.9207 18.3168 29.1224 18.2556 29.2217C18.1056 29.4648 17.9407 29.6946 17.7398 29.8974C16.6318 31.0167 15.0099 30.7601 14.3133 29.3555C13.9633 28.6496 13.8969 27.8893 13.87 27.1178C13.8614 26.8713 13.9947 26.8833 14.1607 26.884" fill="#3A3A3A"></path></svg>